<mxfile host="app.diagrams.net" agent="Mozilla/5.0 (Windows NT 10.0; Win64; x64; rv:133.0) Gecko/20100101 Firefox/133.0" version="24.8.0">
  <diagram id="C5RBs43oDa-KdzZeNtuy" name="Page-1">
    <mxGraphModel dx="1035" dy="565" grid="1" gridSize="10" guides="1" tooltips="1" connect="1" arrows="1" fold="1" page="1" pageScale="1" pageWidth="827" pageHeight="1169" math="0" shadow="0">
      <root>
        <mxCell id="WIyWlLk6GJQsqaUBKTNV-0" />
        <mxCell id="WIyWlLk6GJQsqaUBKTNV-1" parent="WIyWlLk6GJQsqaUBKTNV-0" />
        <mxCell id="4brKPlebmC35_RfNcqNY-105" value="Game Room" style="shape=table;startSize=30;container=1;collapsible=0;childLayout=tableLayout;fontSize=18;" parent="WIyWlLk6GJQsqaUBKTNV-1" vertex="1">
          <mxGeometry x="26.5" y="1200" width="1603.5" height="1120" as="geometry" />
        </mxCell>
        <mxCell id="4brKPlebmC35_RfNcqNY-106" value="" style="shape=tableRow;horizontal=0;startSize=0;swimlaneHead=0;swimlaneBody=0;strokeColor=inherit;top=0;left=0;bottom=0;right=0;collapsible=0;dropTarget=0;fillColor=none;points=[[0,0.5],[1,0.5]];portConstraint=eastwest;" parent="4brKPlebmC35_RfNcqNY-105" vertex="1">
          <mxGeometry y="30" width="1603.5" height="1090" as="geometry" />
        </mxCell>
        <mxCell id="4brKPlebmC35_RfNcqNY-107" value="" style="shape=partialRectangle;html=1;whiteSpace=wrap;connectable=1;strokeColor=inherit;overflow=hidden;fillColor=none;top=0;left=0;bottom=0;right=0;pointerEvents=1;movable=1;resizable=1;rotatable=1;deletable=1;editable=1;locked=0;" parent="4brKPlebmC35_RfNcqNY-106" vertex="1">
          <mxGeometry width="1604" height="1090" as="geometry">
            <mxRectangle width="1604" height="1090" as="alternateBounds" />
          </mxGeometry>
        </mxCell>
        <mxCell id="4brKPlebmC35_RfNcqNY-1" value="Register" style="shape=table;startSize=30;container=1;collapsible=0;childLayout=tableLayout;fontSize=18;" parent="WIyWlLk6GJQsqaUBKTNV-1" vertex="1">
          <mxGeometry x="30" y="40" width="770" height="840" as="geometry" />
        </mxCell>
        <mxCell id="4brKPlebmC35_RfNcqNY-2" value="" style="shape=tableRow;horizontal=0;startSize=0;swimlaneHead=0;swimlaneBody=0;strokeColor=inherit;top=0;left=0;bottom=0;right=0;collapsible=0;dropTarget=0;fillColor=none;points=[[0,0.5],[1,0.5]];portConstraint=eastwest;" parent="4brKPlebmC35_RfNcqNY-1" vertex="1">
          <mxGeometry y="30" width="770" height="810" as="geometry" />
        </mxCell>
        <mxCell id="4brKPlebmC35_RfNcqNY-3" value="" style="shape=partialRectangle;html=1;whiteSpace=wrap;connectable=0;strokeColor=inherit;overflow=hidden;fillColor=none;top=0;left=0;bottom=0;right=0;pointerEvents=1;" parent="4brKPlebmC35_RfNcqNY-2" vertex="1">
          <mxGeometry width="770" height="810" as="geometry">
            <mxRectangle width="770" height="810" as="alternateBounds" />
          </mxGeometry>
        </mxCell>
        <mxCell id="4brKPlebmC35_RfNcqNY-4" value="" style="edgeStyle=orthogonalEdgeStyle;rounded=0;orthogonalLoop=1;jettySize=auto;html=1;strokeWidth=3;" parent="WIyWlLk6GJQsqaUBKTNV-1" source="4brKPlebmC35_RfNcqNY-5" target="4brKPlebmC35_RfNcqNY-27" edge="1">
          <mxGeometry relative="1" as="geometry" />
        </mxCell>
        <mxCell id="4brKPlebmC35_RfNcqNY-5" value="&lt;font size=&quot;3&quot;&gt;START&lt;/font&gt;" style="strokeWidth=2;html=1;shape=mxgraph.flowchart.terminator;whiteSpace=wrap;" parent="WIyWlLk6GJQsqaUBKTNV-1" vertex="1">
          <mxGeometry x="365" y="90" width="100" height="60" as="geometry" />
        </mxCell>
        <mxCell id="4brKPlebmC35_RfNcqNY-6" value="" style="edgeStyle=orthogonalEdgeStyle;rounded=0;orthogonalLoop=1;jettySize=auto;html=1;strokeWidth=3;" parent="WIyWlLk6GJQsqaUBKTNV-1" source="4brKPlebmC35_RfNcqNY-7" target="4brKPlebmC35_RfNcqNY-9" edge="1">
          <mxGeometry relative="1" as="geometry" />
        </mxCell>
        <mxCell id="4brKPlebmC35_RfNcqNY-7" value="&lt;div style=&quot;padding-top: 0px; padding-left: 0px; padding-right: 0px;&quot; align=&quot;center&quot;&gt;&lt;font style=&quot;font-size: 16px;&quot;&gt;input username, display_name, password&lt;/font&gt;&lt;/div&gt;" style="shape=parallelogram;strokeWidth=2;perimeter=parallelogramPerimeter;rounded=1;arcSize=12;size=0.23;fixedWidth=0;autosize=0;expand=1;whiteSpace=wrap;html=1;align=center;labelBorderColor=none;textShadow=0;labelBackgroundColor=none;spacingLeft=0;spacingRight=0;spacing=32;" parent="WIyWlLk6GJQsqaUBKTNV-1" vertex="1">
          <mxGeometry x="325.5" y="292.5" width="180" height="90" as="geometry" />
        </mxCell>
        <mxCell id="4brKPlebmC35_RfNcqNY-8" value="" style="edgeStyle=orthogonalEdgeStyle;rounded=0;orthogonalLoop=1;jettySize=auto;html=1;strokeWidth=3;" parent="WIyWlLk6GJQsqaUBKTNV-1" source="4brKPlebmC35_RfNcqNY-9" target="4brKPlebmC35_RfNcqNY-11" edge="1">
          <mxGeometry relative="1" as="geometry" />
        </mxCell>
        <mxCell id="4brKPlebmC35_RfNcqNY-9" value="&lt;font size=&quot;3&quot;&gt;&lt;b&gt;client&lt;/b&gt;&lt;br&gt;filter the inputs (length &amp;amp; regex)&lt;/font&gt;" style="rounded=1;whiteSpace=wrap;html=1;absoluteArcSize=1;arcSize=14;strokeWidth=2;labelBorderColor=none;" parent="WIyWlLk6GJQsqaUBKTNV-1" vertex="1">
          <mxGeometry x="58.75" y="287.5" width="190" height="100" as="geometry" />
        </mxCell>
        <mxCell id="4brKPlebmC35_RfNcqNY-10" value="" style="edgeStyle=orthogonalEdgeStyle;rounded=0;orthogonalLoop=1;jettySize=auto;html=1;strokeWidth=3;" parent="WIyWlLk6GJQsqaUBKTNV-1" source="4brKPlebmC35_RfNcqNY-11" target="4brKPlebmC35_RfNcqNY-13" edge="1">
          <mxGeometry relative="1" as="geometry" />
        </mxCell>
        <mxCell id="4brKPlebmC35_RfNcqNY-11" value="&lt;font size=&quot;3&quot;&gt;send payload to server&lt;br&gt;(display_name, username, password)&lt;br&gt;&lt;/font&gt;" style="rounded=1;whiteSpace=wrap;html=1;absoluteArcSize=1;arcSize=14;strokeWidth=2;labelBorderColor=none;" parent="WIyWlLk6GJQsqaUBKTNV-1" vertex="1">
          <mxGeometry x="57.75" y="445" width="190" height="100" as="geometry" />
        </mxCell>
        <mxCell id="4brKPlebmC35_RfNcqNY-12" value="" style="edgeStyle=orthogonalEdgeStyle;rounded=0;orthogonalLoop=1;jettySize=auto;html=1;strokeWidth=3;" parent="WIyWlLk6GJQsqaUBKTNV-1" source="4brKPlebmC35_RfNcqNY-13" target="4brKPlebmC35_RfNcqNY-22" edge="1">
          <mxGeometry relative="1" as="geometry" />
        </mxCell>
        <mxCell id="4brKPlebmC35_RfNcqNY-13" value="&lt;font size=&quot;3&quot;&gt;&lt;b&gt;server&lt;/b&gt;&lt;br&gt;filter the payload (num of inputs, typeof, length, regex)&lt;br&gt;&lt;/font&gt;" style="rounded=1;whiteSpace=wrap;html=1;absoluteArcSize=1;arcSize=14;strokeWidth=2;labelBorderColor=none;" parent="WIyWlLk6GJQsqaUBKTNV-1" vertex="1">
          <mxGeometry x="58.75" y="590" width="190" height="100" as="geometry" />
        </mxCell>
        <mxCell id="4brKPlebmC35_RfNcqNY-14" value="" style="edgeStyle=orthogonalEdgeStyle;rounded=0;orthogonalLoop=1;jettySize=auto;html=1;strokeWidth=3;" parent="WIyWlLk6GJQsqaUBKTNV-1" source="4brKPlebmC35_RfNcqNY-16" target="4brKPlebmC35_RfNcqNY-17" edge="1">
          <mxGeometry relative="1" as="geometry" />
        </mxCell>
        <mxCell id="4brKPlebmC35_RfNcqNY-15" value="" style="edgeStyle=orthogonalEdgeStyle;rounded=0;orthogonalLoop=1;jettySize=auto;html=1;strokeWidth=3;" parent="WIyWlLk6GJQsqaUBKTNV-1" source="4brKPlebmC35_RfNcqNY-16" target="4brKPlebmC35_RfNcqNY-25" edge="1">
          <mxGeometry relative="1" as="geometry" />
        </mxCell>
        <mxCell id="4brKPlebmC35_RfNcqNY-16" value="&lt;font size=&quot;3&quot;&gt;store to database&lt;br&gt;&lt;/font&gt;" style="rounded=1;whiteSpace=wrap;html=1;absoluteArcSize=1;arcSize=14;strokeWidth=2;labelBorderColor=none;" parent="WIyWlLk6GJQsqaUBKTNV-1" vertex="1">
          <mxGeometry x="270" y="755" width="190" height="100" as="geometry" />
        </mxCell>
        <mxCell id="4brKPlebmC35_RfNcqNY-17" value="&lt;p style=&quot;line-height: 120%; padding-bottom: 0px; margin-top: 0px; margin-bottom: 20px;&quot;&gt;&lt;font size=&quot;3&quot;&gt;users &amp;amp; players&lt;br&gt;&lt;/font&gt;&lt;/p&gt;" style="strokeWidth=2;html=1;shape=mxgraph.flowchart.merge_or_storage;whiteSpace=wrap;labelBorderColor=none;spacing=22;verticalAlign=middle;horizontal=1;labelPosition=center;verticalLabelPosition=middle;align=center;" parent="WIyWlLk6GJQsqaUBKTNV-1" vertex="1">
          <mxGeometry x="81" y="765" width="130" height="80" as="geometry" />
        </mxCell>
        <mxCell id="4brKPlebmC35_RfNcqNY-18" value="" style="edgeStyle=orthogonalEdgeStyle;rounded=0;orthogonalLoop=1;jettySize=auto;html=1;strokeWidth=3;" parent="WIyWlLk6GJQsqaUBKTNV-1" source="4brKPlebmC35_RfNcqNY-22" target="4brKPlebmC35_RfNcqNY-16" edge="1">
          <mxGeometry relative="1" as="geometry" />
        </mxCell>
        <mxCell id="4brKPlebmC35_RfNcqNY-19" value="&lt;font style=&quot;font-size: 18px;&quot;&gt;YES&lt;/font&gt;" style="edgeLabel;html=1;align=center;verticalAlign=middle;resizable=0;points=[];" parent="4brKPlebmC35_RfNcqNY-18" vertex="1" connectable="0">
          <mxGeometry x="-0.0169" relative="1" as="geometry">
            <mxPoint x="1" y="-9" as="offset" />
          </mxGeometry>
        </mxCell>
        <mxCell id="4brKPlebmC35_RfNcqNY-20" value="" style="edgeStyle=orthogonalEdgeStyle;rounded=0;orthogonalLoop=1;jettySize=auto;html=1;strokeWidth=3;" parent="WIyWlLk6GJQsqaUBKTNV-1" source="4brKPlebmC35_RfNcqNY-22" target="4brKPlebmC35_RfNcqNY-24" edge="1">
          <mxGeometry relative="1" as="geometry" />
        </mxCell>
        <mxCell id="4brKPlebmC35_RfNcqNY-21" value="&lt;font style=&quot;font-size: 18px;&quot;&gt;NO&lt;/font&gt;" style="edgeLabel;html=1;align=center;verticalAlign=middle;resizable=0;points=[];" parent="4brKPlebmC35_RfNcqNY-20" vertex="1" connectable="0">
          <mxGeometry x="-0.2315" relative="1" as="geometry">
            <mxPoint as="offset" />
          </mxGeometry>
        </mxCell>
        <mxCell id="4brKPlebmC35_RfNcqNY-22" value="&lt;font size=&quot;3&quot;&gt;filter success?&lt;/font&gt;" style="strokeWidth=2;html=1;shape=mxgraph.flowchart.decision;whiteSpace=wrap;spacing=22;" parent="WIyWlLk6GJQsqaUBKTNV-1" vertex="1">
          <mxGeometry x="307.63" y="580" width="116.75" height="120" as="geometry" />
        </mxCell>
        <mxCell id="4brKPlebmC35_RfNcqNY-23" value="" style="edgeStyle=orthogonalEdgeStyle;rounded=0;orthogonalLoop=1;jettySize=auto;html=1;strokeWidth=3;" parent="WIyWlLk6GJQsqaUBKTNV-1" source="4brKPlebmC35_RfNcqNY-24" target="4brKPlebmC35_RfNcqNY-7" edge="1">
          <mxGeometry relative="1" as="geometry">
            <Array as="points">
              <mxPoint x="366" y="420" />
              <mxPoint x="414" y="420" />
            </Array>
          </mxGeometry>
        </mxCell>
        <mxCell id="4brKPlebmC35_RfNcqNY-24" value="&lt;font size=&quot;3&quot;&gt;&lt;b&gt;client&lt;/b&gt;&lt;br&gt;display error message&lt;br&gt;&lt;/font&gt;" style="strokeWidth=2;html=1;shape=mxgraph.flowchart.display;whiteSpace=wrap;labelBorderColor=none;spacing=22;" parent="WIyWlLk6GJQsqaUBKTNV-1" vertex="1">
          <mxGeometry x="281" y="440" width="170" height="90" as="geometry" />
        </mxCell>
        <mxCell id="4brKPlebmC35_RfNcqNY-78" value="" style="edgeStyle=orthogonalEdgeStyle;rounded=0;orthogonalLoop=1;jettySize=auto;html=1;strokeWidth=3;" parent="WIyWlLk6GJQsqaUBKTNV-1" source="4brKPlebmC35_RfNcqNY-25" target="4brKPlebmC35_RfNcqNY-44" edge="1">
          <mxGeometry relative="1" as="geometry">
            <Array as="points">
              <mxPoint x="830" y="805" />
              <mxPoint x="830" y="150" />
            </Array>
          </mxGeometry>
        </mxCell>
        <mxCell id="4brKPlebmC35_RfNcqNY-25" value="&lt;font size=&quot;3&quot;&gt;&lt;b&gt;client&lt;/b&gt;&lt;br&gt;display success message&lt;br&gt;&lt;/font&gt;" style="strokeWidth=2;html=1;shape=mxgraph.flowchart.display;whiteSpace=wrap;labelBorderColor=none;spacing=22;" parent="WIyWlLk6GJQsqaUBKTNV-1" vertex="1">
          <mxGeometry x="593.75" y="760" width="170" height="90" as="geometry" />
        </mxCell>
        <mxCell id="4brKPlebmC35_RfNcqNY-26" value="" style="edgeStyle=orthogonalEdgeStyle;rounded=0;orthogonalLoop=1;jettySize=auto;html=1;strokeWidth=3;" parent="WIyWlLk6GJQsqaUBKTNV-1" source="4brKPlebmC35_RfNcqNY-27" target="4brKPlebmC35_RfNcqNY-32" edge="1">
          <mxGeometry relative="1" as="geometry">
            <Array as="points">
              <mxPoint x="679" y="230" />
            </Array>
          </mxGeometry>
        </mxCell>
        <mxCell id="4brKPlebmC35_RfNcqNY-27" value="&lt;font size=&quot;3&quot;&gt;&lt;b&gt;client&lt;/b&gt;&lt;br&gt;check refresh token&lt;br&gt;&lt;/font&gt;" style="rounded=1;whiteSpace=wrap;html=1;absoluteArcSize=1;arcSize=14;strokeWidth=2;labelBorderColor=none;" parent="WIyWlLk6GJQsqaUBKTNV-1" vertex="1">
          <mxGeometry x="335.5" y="180" width="160" height="90" as="geometry" />
        </mxCell>
        <mxCell id="4brKPlebmC35_RfNcqNY-28" value="" style="edgeStyle=orthogonalEdgeStyle;rounded=0;orthogonalLoop=1;jettySize=auto;html=1;strokeWidth=3;" parent="WIyWlLk6GJQsqaUBKTNV-1" source="4brKPlebmC35_RfNcqNY-32" target="4brKPlebmC35_RfNcqNY-7" edge="1">
          <mxGeometry relative="1" as="geometry" />
        </mxCell>
        <mxCell id="4brKPlebmC35_RfNcqNY-29" value="&lt;font style=&quot;font-size: 18px;&quot;&gt;NO&lt;/font&gt;" style="edgeLabel;html=1;align=center;verticalAlign=middle;resizable=0;points=[];" parent="4brKPlebmC35_RfNcqNY-28" vertex="1" connectable="0">
          <mxGeometry x="-0.4915" relative="1" as="geometry">
            <mxPoint x="-4" as="offset" />
          </mxGeometry>
        </mxCell>
        <mxCell id="4brKPlebmC35_RfNcqNY-30" value="" style="edgeStyle=orthogonalEdgeStyle;rounded=0;orthogonalLoop=1;jettySize=auto;html=1;strokeWidth=3;" parent="WIyWlLk6GJQsqaUBKTNV-1" source="4brKPlebmC35_RfNcqNY-32" target="4brKPlebmC35_RfNcqNY-34" edge="1">
          <mxGeometry relative="1" as="geometry" />
        </mxCell>
        <mxCell id="4brKPlebmC35_RfNcqNY-31" value="&lt;font style=&quot;font-size: 18px;&quot;&gt;YES&lt;/font&gt;" style="edgeLabel;html=1;align=center;verticalAlign=middle;resizable=0;points=[];" parent="4brKPlebmC35_RfNcqNY-30" vertex="1" connectable="0">
          <mxGeometry x="-0.3251" relative="1" as="geometry">
            <mxPoint as="offset" />
          </mxGeometry>
        </mxCell>
        <mxCell id="4brKPlebmC35_RfNcqNY-32" value="&lt;font size=&quot;3&quot;&gt;token exist?&lt;br&gt;&lt;/font&gt;" style="strokeWidth=2;html=1;shape=mxgraph.flowchart.decision;whiteSpace=wrap;" parent="WIyWlLk6GJQsqaUBKTNV-1" vertex="1">
          <mxGeometry x="623.75" y="280" width="110" height="115" as="geometry" />
        </mxCell>
        <mxCell id="4brKPlebmC35_RfNcqNY-33" value="" style="edgeStyle=orthogonalEdgeStyle;rounded=0;orthogonalLoop=1;jettySize=auto;html=1;strokeWidth=3;" parent="WIyWlLk6GJQsqaUBKTNV-1" source="4brKPlebmC35_RfNcqNY-34" target="4brKPlebmC35_RfNcqNY-39" edge="1">
          <mxGeometry relative="1" as="geometry" />
        </mxCell>
        <mxCell id="4brKPlebmC35_RfNcqNY-34" value="&lt;font size=&quot;3&quot;&gt;verify token&lt;br&gt;&lt;/font&gt;" style="rounded=1;whiteSpace=wrap;html=1;absoluteArcSize=1;arcSize=14;strokeWidth=2;labelBorderColor=none;" parent="WIyWlLk6GJQsqaUBKTNV-1" vertex="1">
          <mxGeometry x="598.75" y="450" width="160" height="90" as="geometry" />
        </mxCell>
        <mxCell id="4brKPlebmC35_RfNcqNY-37" style="edgeStyle=orthogonalEdgeStyle;rounded=0;orthogonalLoop=1;jettySize=auto;html=1;strokeWidth=3;" parent="WIyWlLk6GJQsqaUBKTNV-1" source="4brKPlebmC35_RfNcqNY-39" target="4brKPlebmC35_RfNcqNY-7" edge="1">
          <mxGeometry relative="1" as="geometry">
            <Array as="points">
              <mxPoint x="521" y="637" />
              <mxPoint x="521" y="420" />
              <mxPoint x="414" y="420" />
            </Array>
          </mxGeometry>
        </mxCell>
        <mxCell id="4brKPlebmC35_RfNcqNY-38" value="&lt;font style=&quot;font-size: 18px;&quot;&gt;YES&lt;/font&gt;" style="edgeLabel;html=1;align=center;verticalAlign=middle;resizable=0;points=[];" parent="4brKPlebmC35_RfNcqNY-37" vertex="1" connectable="0">
          <mxGeometry x="-0.8194" relative="1" as="geometry">
            <mxPoint as="offset" />
          </mxGeometry>
        </mxCell>
        <mxCell id="wWXpOMj7G_PFiM4mv3d8-1" style="edgeStyle=orthogonalEdgeStyle;rounded=0;orthogonalLoop=1;jettySize=auto;html=1;strokeWidth=3;" parent="WIyWlLk6GJQsqaUBKTNV-1" source="4brKPlebmC35_RfNcqNY-39" target="4brKPlebmC35_RfNcqNY-76" edge="1">
          <mxGeometry relative="1" as="geometry">
            <Array as="points">
              <mxPoint x="679" y="710" />
              <mxPoint x="1460" y="710" />
            </Array>
          </mxGeometry>
        </mxCell>
        <mxCell id="wWXpOMj7G_PFiM4mv3d8-3" value="&lt;font style=&quot;font-size: 18px;&quot;&gt;NO&lt;/font&gt;" style="edgeLabel;html=1;align=center;verticalAlign=middle;resizable=0;points=[];" parent="wWXpOMj7G_PFiM4mv3d8-1" vertex="1" connectable="0">
          <mxGeometry x="-0.8385" relative="1" as="geometry">
            <mxPoint as="offset" />
          </mxGeometry>
        </mxCell>
        <mxCell id="4brKPlebmC35_RfNcqNY-39" value="&lt;font size=&quot;3&quot;&gt;expired?&lt;/font&gt;" style="strokeWidth=2;html=1;shape=mxgraph.flowchart.decision;whiteSpace=wrap;" parent="WIyWlLk6GJQsqaUBKTNV-1" vertex="1">
          <mxGeometry x="623.75" y="580" width="110" height="115" as="geometry" />
        </mxCell>
        <mxCell id="4brKPlebmC35_RfNcqNY-40" value="Login" style="shape=table;startSize=30;container=1;collapsible=0;childLayout=tableLayout;fontSize=18;" parent="WIyWlLk6GJQsqaUBKTNV-1" vertex="1">
          <mxGeometry x="856" y="40" width="770" height="840" as="geometry" />
        </mxCell>
        <mxCell id="4brKPlebmC35_RfNcqNY-41" value="" style="shape=tableRow;horizontal=0;startSize=0;swimlaneHead=0;swimlaneBody=0;strokeColor=inherit;top=0;left=0;bottom=0;right=0;collapsible=0;dropTarget=0;fillColor=none;points=[[0,0.5],[1,0.5]];portConstraint=eastwest;" parent="4brKPlebmC35_RfNcqNY-40" vertex="1">
          <mxGeometry y="30" width="770" height="810" as="geometry" />
        </mxCell>
        <mxCell id="4brKPlebmC35_RfNcqNY-42" value="" style="shape=partialRectangle;html=1;whiteSpace=wrap;connectable=0;strokeColor=inherit;overflow=hidden;fillColor=none;top=0;left=0;bottom=0;right=0;pointerEvents=1;" parent="4brKPlebmC35_RfNcqNY-41" vertex="1">
          <mxGeometry width="770" height="810" as="geometry">
            <mxRectangle width="770" height="810" as="alternateBounds" />
          </mxGeometry>
        </mxCell>
        <mxCell id="4brKPlebmC35_RfNcqNY-43" value="" style="edgeStyle=orthogonalEdgeStyle;rounded=0;orthogonalLoop=1;jettySize=auto;html=1;strokeWidth=3;" parent="WIyWlLk6GJQsqaUBKTNV-1" source="4brKPlebmC35_RfNcqNY-44" target="4brKPlebmC35_RfNcqNY-46" edge="1">
          <mxGeometry relative="1" as="geometry" />
        </mxCell>
        <mxCell id="4brKPlebmC35_RfNcqNY-44" value="&lt;div style=&quot;padding-top: 0px; padding-left: 0px; padding-right: 0px;&quot; align=&quot;center&quot;&gt;&lt;font style=&quot;font-size: 16px;&quot;&gt;input username, password&lt;/font&gt;&lt;/div&gt;" style="shape=parallelogram;strokeWidth=2;perimeter=parallelogramPerimeter;rounded=1;arcSize=12;size=0.23;fixedWidth=0;autosize=0;expand=1;whiteSpace=wrap;html=1;align=center;labelBorderColor=none;textShadow=0;labelBackgroundColor=none;spacingLeft=0;spacingRight=0;spacing=32;" parent="WIyWlLk6GJQsqaUBKTNV-1" vertex="1">
          <mxGeometry x="900" y="105" width="180" height="90" as="geometry" />
        </mxCell>
        <mxCell id="4brKPlebmC35_RfNcqNY-45" value="" style="edgeStyle=orthogonalEdgeStyle;rounded=0;orthogonalLoop=1;jettySize=auto;html=1;strokeWidth=3;" parent="WIyWlLk6GJQsqaUBKTNV-1" source="4brKPlebmC35_RfNcqNY-46" target="4brKPlebmC35_RfNcqNY-48" edge="1">
          <mxGeometry relative="1" as="geometry" />
        </mxCell>
        <mxCell id="4brKPlebmC35_RfNcqNY-46" value="&lt;font size=&quot;3&quot;&gt;&lt;b&gt;client&lt;/b&gt;&lt;br&gt;filter the inputs (length &amp;amp; regex)&lt;/font&gt;" style="rounded=1;whiteSpace=wrap;html=1;absoluteArcSize=1;arcSize=14;strokeWidth=2;labelBorderColor=none;" parent="WIyWlLk6GJQsqaUBKTNV-1" vertex="1">
          <mxGeometry x="1146" y="100" width="190" height="100" as="geometry" />
        </mxCell>
        <mxCell id="4brKPlebmC35_RfNcqNY-47" value="" style="edgeStyle=orthogonalEdgeStyle;rounded=0;orthogonalLoop=1;jettySize=auto;html=1;strokeWidth=3;" parent="WIyWlLk6GJQsqaUBKTNV-1" source="4brKPlebmC35_RfNcqNY-48" target="4brKPlebmC35_RfNcqNY-50" edge="1">
          <mxGeometry relative="1" as="geometry" />
        </mxCell>
        <mxCell id="4brKPlebmC35_RfNcqNY-48" value="&lt;font size=&quot;3&quot;&gt;send payload to server&lt;br&gt;(username, password)&lt;br&gt;&lt;/font&gt;" style="rounded=1;whiteSpace=wrap;html=1;absoluteArcSize=1;arcSize=14;strokeWidth=2;labelBorderColor=none;" parent="WIyWlLk6GJQsqaUBKTNV-1" vertex="1">
          <mxGeometry x="1400" y="100" width="190" height="100" as="geometry" />
        </mxCell>
        <mxCell id="4brKPlebmC35_RfNcqNY-49" value="" style="edgeStyle=orthogonalEdgeStyle;rounded=0;orthogonalLoop=1;jettySize=auto;html=1;strokeWidth=3;" parent="WIyWlLk6GJQsqaUBKTNV-1" source="4brKPlebmC35_RfNcqNY-50" target="4brKPlebmC35_RfNcqNY-55" edge="1">
          <mxGeometry relative="1" as="geometry" />
        </mxCell>
        <mxCell id="4brKPlebmC35_RfNcqNY-50" value="&lt;font size=&quot;3&quot;&gt;&lt;b&gt;server&lt;/b&gt;&lt;br&gt;filter the payload (num of inputs, typeof, length, regex)&lt;br&gt;&lt;/font&gt;" style="rounded=1;whiteSpace=wrap;html=1;absoluteArcSize=1;arcSize=14;strokeWidth=2;labelBorderColor=none;" parent="WIyWlLk6GJQsqaUBKTNV-1" vertex="1">
          <mxGeometry x="1400" y="260" width="190" height="100" as="geometry" />
        </mxCell>
        <mxCell id="4brKPlebmC35_RfNcqNY-51" value="" style="edgeStyle=orthogonalEdgeStyle;rounded=0;orthogonalLoop=1;jettySize=auto;html=1;strokeWidth=3;" parent="WIyWlLk6GJQsqaUBKTNV-1" source="4brKPlebmC35_RfNcqNY-55" target="4brKPlebmC35_RfNcqNY-57" edge="1">
          <mxGeometry relative="1" as="geometry" />
        </mxCell>
        <mxCell id="4brKPlebmC35_RfNcqNY-52" value="&lt;font style=&quot;font-size: 18px;&quot;&gt;NO&lt;/font&gt;" style="edgeLabel;html=1;align=center;verticalAlign=middle;resizable=0;points=[];" parent="4brKPlebmC35_RfNcqNY-51" vertex="1" connectable="0">
          <mxGeometry x="-0.1541" y="-4" relative="1" as="geometry">
            <mxPoint as="offset" />
          </mxGeometry>
        </mxCell>
        <mxCell id="4brKPlebmC35_RfNcqNY-53" value="" style="edgeStyle=orthogonalEdgeStyle;rounded=0;orthogonalLoop=1;jettySize=auto;html=1;strokeWidth=3;" parent="WIyWlLk6GJQsqaUBKTNV-1" source="4brKPlebmC35_RfNcqNY-55" target="4brKPlebmC35_RfNcqNY-59" edge="1">
          <mxGeometry relative="1" as="geometry" />
        </mxCell>
        <mxCell id="4brKPlebmC35_RfNcqNY-54" value="&lt;font style=&quot;font-size: 18px;&quot;&gt;YES&lt;/font&gt;" style="edgeLabel;html=1;align=center;verticalAlign=middle;resizable=0;points=[];" parent="4brKPlebmC35_RfNcqNY-53" vertex="1" connectable="0">
          <mxGeometry x="-0.2255" y="-1" relative="1" as="geometry">
            <mxPoint as="offset" />
          </mxGeometry>
        </mxCell>
        <mxCell id="4brKPlebmC35_RfNcqNY-55" value="&lt;font size=&quot;3&quot;&gt;filter success?&lt;/font&gt;" style="strokeWidth=2;html=1;shape=mxgraph.flowchart.decision;whiteSpace=wrap;" parent="WIyWlLk6GJQsqaUBKTNV-1" vertex="1">
          <mxGeometry x="1180" y="240" width="136" height="140" as="geometry" />
        </mxCell>
        <mxCell id="4brKPlebmC35_RfNcqNY-56" value="" style="edgeStyle=orthogonalEdgeStyle;rounded=0;orthogonalLoop=1;jettySize=auto;html=1;strokeWidth=3;" parent="WIyWlLk6GJQsqaUBKTNV-1" source="4brKPlebmC35_RfNcqNY-57" target="4brKPlebmC35_RfNcqNY-44" edge="1">
          <mxGeometry relative="1" as="geometry" />
        </mxCell>
        <mxCell id="4brKPlebmC35_RfNcqNY-57" value="&lt;font size=&quot;3&quot;&gt;&lt;b&gt;client&lt;/b&gt;&lt;br&gt;display error message&lt;br&gt;&lt;/font&gt;" style="strokeWidth=2;html=1;shape=mxgraph.flowchart.display;whiteSpace=wrap;labelBorderColor=none;spacing=22;" parent="WIyWlLk6GJQsqaUBKTNV-1" vertex="1">
          <mxGeometry x="905" y="265" width="170" height="90" as="geometry" />
        </mxCell>
        <mxCell id="4brKPlebmC35_RfNcqNY-58" value="" style="edgeStyle=orthogonalEdgeStyle;rounded=0;orthogonalLoop=1;jettySize=auto;html=1;strokeWidth=3;" parent="WIyWlLk6GJQsqaUBKTNV-1" source="4brKPlebmC35_RfNcqNY-59" target="4brKPlebmC35_RfNcqNY-63" edge="1">
          <mxGeometry relative="1" as="geometry" />
        </mxCell>
        <mxCell id="4brKPlebmC35_RfNcqNY-59" value="&lt;font size=&quot;3&quot;&gt;get user data from database (by username)&lt;br&gt;&lt;/font&gt;" style="rounded=1;whiteSpace=wrap;html=1;absoluteArcSize=1;arcSize=14;strokeWidth=2;labelBorderColor=none;" parent="WIyWlLk6GJQsqaUBKTNV-1" vertex="1">
          <mxGeometry x="1153" y="440" width="190" height="100" as="geometry" />
        </mxCell>
        <mxCell id="4brKPlebmC35_RfNcqNY-60" value="" style="edgeStyle=orthogonalEdgeStyle;rounded=0;orthogonalLoop=1;jettySize=auto;html=1;strokeWidth=3;" parent="WIyWlLk6GJQsqaUBKTNV-1" source="4brKPlebmC35_RfNcqNY-61" target="4brKPlebmC35_RfNcqNY-59" edge="1">
          <mxGeometry relative="1" as="geometry" />
        </mxCell>
        <mxCell id="4brKPlebmC35_RfNcqNY-61" value="&lt;p style=&quot;line-height: 120%; padding-bottom: 0px; margin-top: 0px; margin-bottom: 20px;&quot;&gt;&lt;font size=&quot;3&quot;&gt;users&lt;br&gt;&lt;/font&gt;&lt;/p&gt;" style="strokeWidth=2;html=1;shape=mxgraph.flowchart.merge_or_storage;whiteSpace=wrap;labelBorderColor=none;spacing=22;verticalAlign=middle;horizontal=1;labelPosition=center;verticalLabelPosition=middle;align=center;" parent="WIyWlLk6GJQsqaUBKTNV-1" vertex="1">
          <mxGeometry x="1430" y="450" width="130" height="80" as="geometry" />
        </mxCell>
        <mxCell id="4brKPlebmC35_RfNcqNY-62" value="" style="edgeStyle=orthogonalEdgeStyle;rounded=0;orthogonalLoop=1;jettySize=auto;html=1;strokeWidth=3;" parent="WIyWlLk6GJQsqaUBKTNV-1" source="4brKPlebmC35_RfNcqNY-63" target="4brKPlebmC35_RfNcqNY-68" edge="1">
          <mxGeometry relative="1" as="geometry" />
        </mxCell>
        <mxCell id="4brKPlebmC35_RfNcqNY-63" value="&lt;font size=&quot;3&quot;&gt;match user password&lt;br&gt;&lt;/font&gt;" style="rounded=1;whiteSpace=wrap;html=1;absoluteArcSize=1;arcSize=14;strokeWidth=2;labelBorderColor=none;" parent="WIyWlLk6GJQsqaUBKTNV-1" vertex="1">
          <mxGeometry x="1153" y="580" width="190" height="100" as="geometry" />
        </mxCell>
        <mxCell id="4brKPlebmC35_RfNcqNY-64" value="" style="edgeStyle=orthogonalEdgeStyle;rounded=0;orthogonalLoop=1;jettySize=auto;html=1;strokeWidth=3;" parent="WIyWlLk6GJQsqaUBKTNV-1" source="4brKPlebmC35_RfNcqNY-68" target="4brKPlebmC35_RfNcqNY-57" edge="1">
          <mxGeometry relative="1" as="geometry" />
        </mxCell>
        <mxCell id="4brKPlebmC35_RfNcqNY-65" value="&lt;font style=&quot;font-size: 18px;&quot;&gt;NO&lt;/font&gt;" style="edgeLabel;html=1;align=center;verticalAlign=middle;resizable=0;points=[];" parent="4brKPlebmC35_RfNcqNY-64" vertex="1" connectable="0">
          <mxGeometry x="-0.572" y="-1" relative="1" as="geometry">
            <mxPoint x="-1" y="-20" as="offset" />
          </mxGeometry>
        </mxCell>
        <mxCell id="4brKPlebmC35_RfNcqNY-66" value="" style="edgeStyle=orthogonalEdgeStyle;rounded=0;orthogonalLoop=1;jettySize=auto;html=1;strokeWidth=3;" parent="WIyWlLk6GJQsqaUBKTNV-1" source="4brKPlebmC35_RfNcqNY-68" target="4brKPlebmC35_RfNcqNY-70" edge="1">
          <mxGeometry relative="1" as="geometry">
            <Array as="points">
              <mxPoint x="990" y="730" />
              <mxPoint x="1248" y="730" />
            </Array>
          </mxGeometry>
        </mxCell>
        <mxCell id="4brKPlebmC35_RfNcqNY-67" value="&lt;font style=&quot;font-size: 18px;&quot;&gt;YES&lt;/font&gt;" style="edgeLabel;html=1;align=center;verticalAlign=middle;resizable=0;points=[];" parent="4brKPlebmC35_RfNcqNY-66" vertex="1" connectable="0">
          <mxGeometry x="-0.2255" relative="1" as="geometry">
            <mxPoint x="-36" y="-90" as="offset" />
          </mxGeometry>
        </mxCell>
        <mxCell id="4brKPlebmC35_RfNcqNY-68" value="&lt;font size=&quot;3&quot;&gt;is password match?&lt;br&gt;&lt;/font&gt;" style="strokeWidth=2;html=1;shape=mxgraph.flowchart.decision;whiteSpace=wrap;" parent="WIyWlLk6GJQsqaUBKTNV-1" vertex="1">
          <mxGeometry x="922" y="450" width="136" height="140" as="geometry" />
        </mxCell>
        <mxCell id="4brKPlebmC35_RfNcqNY-69" value="" style="edgeStyle=orthogonalEdgeStyle;rounded=0;orthogonalLoop=1;jettySize=auto;html=1;strokeWidth=3;" parent="WIyWlLk6GJQsqaUBKTNV-1" source="4brKPlebmC35_RfNcqNY-70" target="4brKPlebmC35_RfNcqNY-76" edge="1">
          <mxGeometry relative="1" as="geometry" />
        </mxCell>
        <mxCell id="4brKPlebmC35_RfNcqNY-70" value="&lt;font size=&quot;3&quot;&gt;get player data from database (by user_id)&lt;br&gt;&lt;/font&gt;" style="rounded=1;whiteSpace=wrap;html=1;absoluteArcSize=1;arcSize=14;strokeWidth=2;labelBorderColor=none;" parent="WIyWlLk6GJQsqaUBKTNV-1" vertex="1">
          <mxGeometry x="1153" y="760" width="190" height="100" as="geometry" />
        </mxCell>
        <mxCell id="4brKPlebmC35_RfNcqNY-71" value="" style="edgeStyle=orthogonalEdgeStyle;rounded=0;orthogonalLoop=1;jettySize=auto;html=1;strokeWidth=3;" parent="WIyWlLk6GJQsqaUBKTNV-1" source="4brKPlebmC35_RfNcqNY-72" target="4brKPlebmC35_RfNcqNY-70" edge="1">
          <mxGeometry relative="1" as="geometry" />
        </mxCell>
        <mxCell id="4brKPlebmC35_RfNcqNY-72" value="&lt;p style=&quot;line-height: 120%; padding-bottom: 0px; margin-top: 0px; margin-bottom: 20px;&quot;&gt;&lt;font size=&quot;3&quot;&gt;users &amp;amp; players&lt;br&gt;&lt;/font&gt;&lt;/p&gt;" style="strokeWidth=2;html=1;shape=mxgraph.flowchart.merge_or_storage;whiteSpace=wrap;labelBorderColor=none;spacing=22;verticalAlign=middle;horizontal=1;labelPosition=center;verticalLabelPosition=middle;align=center;" parent="WIyWlLk6GJQsqaUBKTNV-1" vertex="1">
          <mxGeometry x="960" y="770" width="130" height="80" as="geometry" />
        </mxCell>
        <mxCell id="4brKPlebmC35_RfNcqNY-108" value="" style="edgeStyle=orthogonalEdgeStyle;rounded=0;orthogonalLoop=1;jettySize=auto;html=1;strokeWidth=3;" parent="WIyWlLk6GJQsqaUBKTNV-1" source="4brKPlebmC35_RfNcqNY-74" target="4brKPlebmC35_RfNcqNY-82" edge="1">
          <mxGeometry relative="1" as="geometry">
            <Array as="points">
              <mxPoint x="1650" y="655" />
              <mxPoint x="1650" y="155" />
            </Array>
          </mxGeometry>
        </mxCell>
        <mxCell id="4brKPlebmC35_RfNcqNY-74" value="&lt;font size=&quot;3&quot;&gt;&lt;b&gt;client&lt;/b&gt;&lt;br&gt;display success message&lt;br&gt;&lt;/font&gt;" style="strokeWidth=2;html=1;shape=mxgraph.flowchart.display;whiteSpace=wrap;labelBorderColor=none;spacing=22;" parent="WIyWlLk6GJQsqaUBKTNV-1" vertex="1">
          <mxGeometry x="1410" y="610" width="170" height="90" as="geometry" />
        </mxCell>
        <mxCell id="4brKPlebmC35_RfNcqNY-75" value="" style="edgeStyle=orthogonalEdgeStyle;rounded=0;orthogonalLoop=1;jettySize=auto;html=1;strokeWidth=3;" parent="WIyWlLk6GJQsqaUBKTNV-1" source="4brKPlebmC35_RfNcqNY-76" target="4brKPlebmC35_RfNcqNY-74" edge="1">
          <mxGeometry relative="1" as="geometry" />
        </mxCell>
        <mxCell id="4brKPlebmC35_RfNcqNY-76" value="&lt;font size=&quot;3&quot;&gt;&lt;b&gt;server&lt;/b&gt;&lt;br&gt;create access &amp;amp; refresh token (JWT)&lt;br&gt;&lt;/font&gt;" style="rounded=1;whiteSpace=wrap;html=1;absoluteArcSize=1;arcSize=14;strokeWidth=2;labelBorderColor=none;" parent="WIyWlLk6GJQsqaUBKTNV-1" vertex="1">
          <mxGeometry x="1400" y="760" width="190" height="100" as="geometry" />
        </mxCell>
        <mxCell id="4brKPlebmC35_RfNcqNY-79" value="Room List" style="shape=table;startSize=30;container=1;collapsible=0;childLayout=tableLayout;fontSize=18;" parent="WIyWlLk6GJQsqaUBKTNV-1" vertex="1">
          <mxGeometry x="1683" y="40" width="770" height="840" as="geometry" />
        </mxCell>
        <mxCell id="4brKPlebmC35_RfNcqNY-80" value="" style="shape=tableRow;horizontal=0;startSize=0;swimlaneHead=0;swimlaneBody=0;strokeColor=inherit;top=0;left=0;bottom=0;right=0;collapsible=0;dropTarget=0;fillColor=none;points=[[0,0.5],[1,0.5]];portConstraint=eastwest;" parent="4brKPlebmC35_RfNcqNY-79" vertex="1">
          <mxGeometry y="30" width="770" height="810" as="geometry" />
        </mxCell>
        <mxCell id="4brKPlebmC35_RfNcqNY-81" value="" style="shape=partialRectangle;html=1;whiteSpace=wrap;connectable=0;strokeColor=inherit;overflow=hidden;fillColor=none;top=0;left=0;bottom=0;right=0;pointerEvents=1;" parent="4brKPlebmC35_RfNcqNY-80" vertex="1">
          <mxGeometry width="770" height="810" as="geometry">
            <mxRectangle width="770" height="810" as="alternateBounds" />
          </mxGeometry>
        </mxCell>
        <mxCell id="4brKPlebmC35_RfNcqNY-110" value="" style="edgeStyle=orthogonalEdgeStyle;rounded=0;orthogonalLoop=1;jettySize=auto;html=1;strokeWidth=3;" parent="WIyWlLk6GJQsqaUBKTNV-1" source="4brKPlebmC35_RfNcqNY-82" target="4brKPlebmC35_RfNcqNY-109" edge="1">
          <mxGeometry relative="1" as="geometry" />
        </mxCell>
        <mxCell id="4brKPlebmC35_RfNcqNY-82" value="&lt;div style=&quot;padding-top: 0px; padding-left: 0px; padding-right: 0px;&quot; align=&quot;center&quot;&gt;&lt;font style=&quot;font-size: 16px;&quot;&gt;click create room&lt;br&gt;&lt;/font&gt;&lt;/div&gt;" style="shape=parallelogram;strokeWidth=2;perimeter=parallelogramPerimeter;rounded=1;arcSize=12;size=0.23;fixedWidth=0;autosize=0;expand=1;whiteSpace=wrap;html=1;align=center;labelBorderColor=none;textShadow=0;labelBackgroundColor=none;spacingLeft=0;spacingRight=0;spacing=32;" parent="WIyWlLk6GJQsqaUBKTNV-1" vertex="1">
          <mxGeometry x="1730" y="120" width="180" height="90" as="geometry" />
        </mxCell>
        <mxCell id="4brKPlebmC35_RfNcqNY-86" value="" style="edgeStyle=orthogonalEdgeStyle;rounded=0;orthogonalLoop=1;jettySize=auto;html=1;strokeWidth=3;" parent="WIyWlLk6GJQsqaUBKTNV-1" source="4brKPlebmC35_RfNcqNY-83" target="4brKPlebmC35_RfNcqNY-85" edge="1">
          <mxGeometry relative="1" as="geometry" />
        </mxCell>
        <mxCell id="4brKPlebmC35_RfNcqNY-83" value="&lt;div style=&quot;padding-top: 0px; padding-left: 0px; padding-right: 0px;&quot; align=&quot;center&quot;&gt;&lt;font style=&quot;font-size: 16px;&quot;&gt;set the rules&lt;br&gt;- name&lt;br&gt;- password&lt;br&gt;- max player&lt;br&gt;- board&lt;br&gt;- money start&lt;br&gt;- money lose&lt;br&gt;- dice&lt;br&gt;&lt;/font&gt;&lt;/div&gt;" style="shape=parallelogram;strokeWidth=2;perimeter=parallelogramPerimeter;rounded=1;arcSize=12;size=0.23;fixedWidth=0;autosize=0;expand=1;whiteSpace=wrap;html=1;align=center;labelBorderColor=none;textShadow=0;labelBackgroundColor=none;spacingLeft=0;spacingRight=0;spacing=32;" parent="WIyWlLk6GJQsqaUBKTNV-1" vertex="1">
          <mxGeometry x="2220" y="100" width="210" height="170" as="geometry" />
        </mxCell>
        <mxCell id="4brKPlebmC35_RfNcqNY-88" value="" style="edgeStyle=orthogonalEdgeStyle;rounded=0;orthogonalLoop=1;jettySize=auto;html=1;strokeWidth=3;" parent="WIyWlLk6GJQsqaUBKTNV-1" source="4brKPlebmC35_RfNcqNY-85" target="4brKPlebmC35_RfNcqNY-87" edge="1">
          <mxGeometry relative="1" as="geometry" />
        </mxCell>
        <mxCell id="4brKPlebmC35_RfNcqNY-85" value="&lt;font size=&quot;3&quot;&gt;&lt;b&gt;client&lt;/b&gt;&lt;br&gt;filter the inputs (length &amp;amp; regex)&lt;/font&gt;" style="rounded=1;whiteSpace=wrap;html=1;absoluteArcSize=1;arcSize=14;strokeWidth=2;labelBorderColor=none;" parent="WIyWlLk6GJQsqaUBKTNV-1" vertex="1">
          <mxGeometry x="2230" y="330" width="190" height="100" as="geometry" />
        </mxCell>
        <mxCell id="4brKPlebmC35_RfNcqNY-90" value="" style="edgeStyle=orthogonalEdgeStyle;rounded=0;orthogonalLoop=1;jettySize=auto;html=1;strokeWidth=3;" parent="WIyWlLk6GJQsqaUBKTNV-1" source="4brKPlebmC35_RfNcqNY-87" target="4brKPlebmC35_RfNcqNY-89" edge="1">
          <mxGeometry relative="1" as="geometry" />
        </mxCell>
        <mxCell id="4brKPlebmC35_RfNcqNY-87" value="&lt;font size=&quot;3&quot;&gt;send payload to server&lt;br&gt;(rules &amp;amp; player id)&lt;br&gt;&lt;/font&gt;" style="rounded=1;whiteSpace=wrap;html=1;absoluteArcSize=1;arcSize=14;strokeWidth=2;labelBorderColor=none;" parent="WIyWlLk6GJQsqaUBKTNV-1" vertex="1">
          <mxGeometry x="1970" y="310" width="190" height="100" as="geometry" />
        </mxCell>
        <mxCell id="4brKPlebmC35_RfNcqNY-112" value="" style="edgeStyle=orthogonalEdgeStyle;rounded=0;orthogonalLoop=1;jettySize=auto;html=1;strokeWidth=3;" parent="WIyWlLk6GJQsqaUBKTNV-1" source="4brKPlebmC35_RfNcqNY-89" target="4brKPlebmC35_RfNcqNY-91" edge="1">
          <mxGeometry relative="1" as="geometry" />
        </mxCell>
        <mxCell id="4brKPlebmC35_RfNcqNY-89" value="&lt;font size=&quot;3&quot;&gt;&lt;b&gt;server&lt;/b&gt;&lt;br&gt;filter the payload (num of inputs, typeof, length, regex)&lt;br&gt;&lt;/font&gt;" style="rounded=1;whiteSpace=wrap;html=1;absoluteArcSize=1;arcSize=14;strokeWidth=2;labelBorderColor=none;" parent="WIyWlLk6GJQsqaUBKTNV-1" vertex="1">
          <mxGeometry x="1970" y="464.5" width="190" height="100" as="geometry" />
        </mxCell>
        <mxCell id="4brKPlebmC35_RfNcqNY-94" value="" style="edgeStyle=orthogonalEdgeStyle;rounded=0;orthogonalLoop=1;jettySize=auto;html=1;strokeWidth=3;" parent="WIyWlLk6GJQsqaUBKTNV-1" source="4brKPlebmC35_RfNcqNY-91" target="4brKPlebmC35_RfNcqNY-93" edge="1">
          <mxGeometry relative="1" as="geometry" />
        </mxCell>
        <mxCell id="4brKPlebmC35_RfNcqNY-96" value="&lt;font style=&quot;font-size: 18px;&quot;&gt;NO&lt;/font&gt;" style="edgeLabel;html=1;align=center;verticalAlign=middle;resizable=0;points=[];" parent="4brKPlebmC35_RfNcqNY-94" vertex="1" connectable="0">
          <mxGeometry x="-0.6868" relative="1" as="geometry">
            <mxPoint y="-17" as="offset" />
          </mxGeometry>
        </mxCell>
        <mxCell id="4brKPlebmC35_RfNcqNY-99" value="" style="edgeStyle=orthogonalEdgeStyle;rounded=0;orthogonalLoop=1;jettySize=auto;html=1;strokeWidth=3;" parent="WIyWlLk6GJQsqaUBKTNV-1" source="4brKPlebmC35_RfNcqNY-91" target="4brKPlebmC35_RfNcqNY-97" edge="1">
          <mxGeometry relative="1" as="geometry" />
        </mxCell>
        <mxCell id="4brKPlebmC35_RfNcqNY-100" value="&lt;font style=&quot;font-size: 18px;&quot;&gt;YES&lt;/font&gt;" style="edgeLabel;html=1;align=center;verticalAlign=middle;resizable=0;points=[];" parent="4brKPlebmC35_RfNcqNY-99" vertex="1" connectable="0">
          <mxGeometry x="-0.3765" relative="1" as="geometry">
            <mxPoint as="offset" />
          </mxGeometry>
        </mxCell>
        <mxCell id="4brKPlebmC35_RfNcqNY-91" value="&lt;font size=&quot;3&quot;&gt;filter success?&lt;/font&gt;" style="strokeWidth=2;html=1;shape=mxgraph.flowchart.decision;whiteSpace=wrap;" parent="WIyWlLk6GJQsqaUBKTNV-1" vertex="1">
          <mxGeometry x="1752" y="444.5" width="136" height="140" as="geometry" />
        </mxCell>
        <mxCell id="4brKPlebmC35_RfNcqNY-95" value="" style="edgeStyle=orthogonalEdgeStyle;rounded=0;orthogonalLoop=1;jettySize=auto;html=1;strokeWidth=3;" parent="WIyWlLk6GJQsqaUBKTNV-1" source="4brKPlebmC35_RfNcqNY-93" target="4brKPlebmC35_RfNcqNY-82" edge="1">
          <mxGeometry relative="1" as="geometry" />
        </mxCell>
        <mxCell id="4brKPlebmC35_RfNcqNY-93" value="&lt;font size=&quot;3&quot;&gt;&lt;b&gt;client&lt;/b&gt;&lt;br&gt;display error message&lt;br&gt;&lt;/font&gt;" style="strokeWidth=2;html=1;shape=mxgraph.flowchart.display;whiteSpace=wrap;labelBorderColor=none;spacing=22;" parent="WIyWlLk6GJQsqaUBKTNV-1" vertex="1">
          <mxGeometry x="1735" y="280" width="170" height="90" as="geometry" />
        </mxCell>
        <mxCell id="4brKPlebmC35_RfNcqNY-102" value="" style="edgeStyle=orthogonalEdgeStyle;rounded=0;orthogonalLoop=1;jettySize=auto;html=1;strokeWidth=3;" parent="WIyWlLk6GJQsqaUBKTNV-1" source="4brKPlebmC35_RfNcqNY-97" target="4brKPlebmC35_RfNcqNY-101" edge="1">
          <mxGeometry relative="1" as="geometry" />
        </mxCell>
        <mxCell id="4brKPlebmC35_RfNcqNY-104" value="" style="edgeStyle=orthogonalEdgeStyle;rounded=0;orthogonalLoop=1;jettySize=auto;html=1;strokeWidth=3;" parent="WIyWlLk6GJQsqaUBKTNV-1" source="4brKPlebmC35_RfNcqNY-97" target="4brKPlebmC35_RfNcqNY-103" edge="1">
          <mxGeometry relative="1" as="geometry" />
        </mxCell>
        <mxCell id="4brKPlebmC35_RfNcqNY-97" value="&lt;font size=&quot;3&quot;&gt;store room data to rooms&lt;br&gt;store creator data to games&lt;br&gt;&lt;/font&gt;" style="rounded=1;whiteSpace=wrap;html=1;absoluteArcSize=1;arcSize=14;strokeWidth=2;labelBorderColor=none;" parent="WIyWlLk6GJQsqaUBKTNV-1" vertex="1">
          <mxGeometry x="1715" y="650" width="210" height="100" as="geometry" />
        </mxCell>
        <mxCell id="4brKPlebmC35_RfNcqNY-101" value="&lt;p style=&quot;line-height: 120%; padding-bottom: 0px; margin-top: 0px; margin-bottom: 20px;&quot;&gt;&lt;font size=&quot;3&quot;&gt;rooms &amp;amp; games&lt;br&gt;&lt;/font&gt;&lt;/p&gt;" style="strokeWidth=2;html=1;shape=mxgraph.flowchart.merge_or_storage;whiteSpace=wrap;labelBorderColor=none;spacing=22;verticalAlign=middle;horizontal=1;labelPosition=center;verticalLabelPosition=middle;align=center;" parent="WIyWlLk6GJQsqaUBKTNV-1" vertex="1">
          <mxGeometry x="1755" y="790" width="130" height="80" as="geometry" />
        </mxCell>
        <mxCell id="4brKPlebmC35_RfNcqNY-114" value="" style="edgeStyle=orthogonalEdgeStyle;rounded=0;orthogonalLoop=1;jettySize=auto;html=1;strokeWidth=3;" parent="WIyWlLk6GJQsqaUBKTNV-1" source="4brKPlebmC35_RfNcqNY-103" target="4brKPlebmC35_RfNcqNY-113" edge="1">
          <mxGeometry relative="1" as="geometry" />
        </mxCell>
        <mxCell id="4brKPlebmC35_RfNcqNY-103" value="&lt;font size=&quot;3&quot;&gt;&lt;b&gt;client&lt;/b&gt;&lt;br&gt;display success message&lt;br&gt;&lt;/font&gt;" style="strokeWidth=2;html=1;shape=mxgraph.flowchart.display;whiteSpace=wrap;labelBorderColor=none;spacing=22;" parent="WIyWlLk6GJQsqaUBKTNV-1" vertex="1">
          <mxGeometry x="1983" y="655" width="170" height="90" as="geometry" />
        </mxCell>
        <mxCell id="4brKPlebmC35_RfNcqNY-111" value="" style="edgeStyle=orthogonalEdgeStyle;rounded=0;orthogonalLoop=1;jettySize=auto;html=1;strokeWidth=3;" parent="WIyWlLk6GJQsqaUBKTNV-1" source="4brKPlebmC35_RfNcqNY-109" target="4brKPlebmC35_RfNcqNY-83" edge="1">
          <mxGeometry relative="1" as="geometry" />
        </mxCell>
        <mxCell id="4brKPlebmC35_RfNcqNY-109" value="&lt;font size=&quot;3&quot;&gt;display modal for rules settings&lt;br&gt;&lt;/font&gt;" style="strokeWidth=2;html=1;shape=mxgraph.flowchart.display;whiteSpace=wrap;labelBorderColor=none;spacing=22;" parent="WIyWlLk6GJQsqaUBKTNV-1" vertex="1">
          <mxGeometry x="1980" y="120" width="170" height="90" as="geometry" />
        </mxCell>
        <mxCell id="4brKPlebmC35_RfNcqNY-143" value="" style="edgeStyle=orthogonalEdgeStyle;rounded=0;orthogonalLoop=1;jettySize=auto;html=1;strokeWidth=3;" parent="WIyWlLk6GJQsqaUBKTNV-1" source="4brKPlebmC35_RfNcqNY-113" target="4brKPlebmC35_RfNcqNY-142" edge="1">
          <mxGeometry relative="1" as="geometry" />
        </mxCell>
        <mxCell id="4brKPlebmC35_RfNcqNY-113" value="&lt;font size=&quot;3&quot;&gt;&lt;b&gt;client&lt;/b&gt;&lt;br&gt;move creator into game room&lt;br&gt;&lt;/font&gt;" style="rounded=1;whiteSpace=wrap;html=1;absoluteArcSize=1;arcSize=14;strokeWidth=2;labelBorderColor=none;" parent="WIyWlLk6GJQsqaUBKTNV-1" vertex="1">
          <mxGeometry x="2230" y="650" width="190" height="100" as="geometry" />
        </mxCell>
        <mxCell id="4brKPlebmC35_RfNcqNY-121" value="" style="edgeStyle=orthogonalEdgeStyle;rounded=0;orthogonalLoop=1;jettySize=auto;html=1;strokeWidth=3;" parent="WIyWlLk6GJQsqaUBKTNV-1" source="4brKPlebmC35_RfNcqNY-115" target="4brKPlebmC35_RfNcqNY-120" edge="1">
          <mxGeometry relative="1" as="geometry" />
        </mxCell>
        <mxCell id="4brKPlebmC35_RfNcqNY-115" value="&lt;font size=&quot;3&quot;&gt;display game room&lt;br&gt;&lt;/font&gt;" style="strokeWidth=2;html=1;shape=mxgraph.flowchart.display;whiteSpace=wrap;labelBorderColor=none;spacing=22;" parent="WIyWlLk6GJQsqaUBKTNV-1" vertex="1">
          <mxGeometry x="110.5" y="1265" width="170" height="90" as="geometry" />
        </mxCell>
        <mxCell id="4brKPlebmC35_RfNcqNY-123" value="" style="edgeStyle=orthogonalEdgeStyle;rounded=0;orthogonalLoop=1;jettySize=auto;html=1;strokeWidth=3;" parent="WIyWlLk6GJQsqaUBKTNV-1" source="4brKPlebmC35_RfNcqNY-120" target="4brKPlebmC35_RfNcqNY-122" edge="1">
          <mxGeometry relative="1" as="geometry" />
        </mxCell>
        <mxCell id="4brKPlebmC35_RfNcqNY-129" value="&lt;font style=&quot;font-size: 18px;&quot;&gt;YES&lt;/font&gt;" style="edgeLabel;html=1;align=center;verticalAlign=middle;resizable=0;points=[];" parent="4brKPlebmC35_RfNcqNY-123" vertex="1" connectable="0">
          <mxGeometry x="-0.1962" y="1" relative="1" as="geometry">
            <mxPoint x="-1" as="offset" />
          </mxGeometry>
        </mxCell>
        <mxCell id="4brKPlebmC35_RfNcqNY-126" value="" style="edgeStyle=orthogonalEdgeStyle;rounded=0;orthogonalLoop=1;jettySize=auto;html=1;strokeWidth=3;" parent="WIyWlLk6GJQsqaUBKTNV-1" source="4brKPlebmC35_RfNcqNY-120" target="4brKPlebmC35_RfNcqNY-124" edge="1">
          <mxGeometry relative="1" as="geometry" />
        </mxCell>
        <mxCell id="4brKPlebmC35_RfNcqNY-127" value="&lt;font style=&quot;font-size: 18px;&quot;&gt;NO&lt;/font&gt;" style="edgeLabel;html=1;align=center;verticalAlign=middle;resizable=0;points=[];" parent="4brKPlebmC35_RfNcqNY-126" vertex="1" connectable="0">
          <mxGeometry x="-0.2505" y="-1" relative="1" as="geometry">
            <mxPoint y="-1" as="offset" />
          </mxGeometry>
        </mxCell>
        <mxCell id="4brKPlebmC35_RfNcqNY-120" value="&lt;font size=&quot;3&quot;&gt;player enough?&lt;/font&gt;" style="strokeWidth=2;html=1;shape=mxgraph.flowchart.decision;whiteSpace=wrap;" parent="WIyWlLk6GJQsqaUBKTNV-1" vertex="1">
          <mxGeometry x="346.5" y="1240" width="136" height="140" as="geometry" />
        </mxCell>
        <mxCell id="4brKPlebmC35_RfNcqNY-132" value="" style="edgeStyle=orthogonalEdgeStyle;rounded=0;orthogonalLoop=1;jettySize=auto;html=1;strokeWidth=3;" parent="WIyWlLk6GJQsqaUBKTNV-1" source="4brKPlebmC35_RfNcqNY-122" target="4brKPlebmC35_RfNcqNY-131" edge="1">
          <mxGeometry relative="1" as="geometry" />
        </mxCell>
        <mxCell id="4brKPlebmC35_RfNcqNY-122" value="&lt;div style=&quot;padding-top: 0px; padding-left: 0px; padding-right: 0px;&quot; align=&quot;center&quot;&gt;&lt;font style=&quot;font-size: 16px;&quot;&gt;click ready&lt;br&gt;&lt;/font&gt;&lt;/div&gt;" style="shape=parallelogram;strokeWidth=2;perimeter=parallelogramPerimeter;rounded=1;arcSize=12;size=0.23;fixedWidth=0;autosize=0;expand=1;whiteSpace=wrap;html=1;align=center;labelBorderColor=none;textShadow=0;labelBackgroundColor=none;spacingLeft=0;spacingRight=0;spacing=32;" parent="WIyWlLk6GJQsqaUBKTNV-1" vertex="1">
          <mxGeometry x="585.5" y="1265" width="180" height="90" as="geometry" />
        </mxCell>
        <mxCell id="4brKPlebmC35_RfNcqNY-130" value="" style="edgeStyle=orthogonalEdgeStyle;rounded=0;orthogonalLoop=1;jettySize=auto;html=1;strokeWidth=3;" parent="WIyWlLk6GJQsqaUBKTNV-1" source="4brKPlebmC35_RfNcqNY-124" target="4brKPlebmC35_RfNcqNY-115" edge="1">
          <mxGeometry relative="1" as="geometry" />
        </mxCell>
        <mxCell id="4brKPlebmC35_RfNcqNY-124" value="&lt;font size=&quot;3&quot;&gt;waiting players&lt;br&gt;&lt;/font&gt;" style="rounded=1;whiteSpace=wrap;html=1;absoluteArcSize=1;arcSize=14;strokeWidth=2;labelBorderColor=none;" parent="WIyWlLk6GJQsqaUBKTNV-1" vertex="1">
          <mxGeometry x="319.5" y="1447.5" width="190" height="100" as="geometry" />
        </mxCell>
        <mxCell id="4brKPlebmC35_RfNcqNY-134" value="" style="edgeStyle=orthogonalEdgeStyle;rounded=0;orthogonalLoop=1;jettySize=auto;html=1;strokeWidth=3;" parent="WIyWlLk6GJQsqaUBKTNV-1" source="4brKPlebmC35_RfNcqNY-131" target="4brKPlebmC35_RfNcqNY-133" edge="1">
          <mxGeometry relative="1" as="geometry" />
        </mxCell>
        <mxCell id="4brKPlebmC35_RfNcqNY-131" value="&lt;font size=&quot;3&quot;&gt;change the buttons&lt;br&gt;- ready &amp;gt; roll dice&lt;br&gt;- leave &amp;gt; roll turn&lt;br&gt;&lt;/font&gt;" style="rounded=1;whiteSpace=wrap;html=1;absoluteArcSize=1;arcSize=14;strokeWidth=2;labelBorderColor=none;" parent="WIyWlLk6GJQsqaUBKTNV-1" vertex="1">
          <mxGeometry x="580.5" y="1445" width="190" height="100" as="geometry" />
        </mxCell>
        <mxCell id="4brKPlebmC35_RfNcqNY-136" value="" style="edgeStyle=orthogonalEdgeStyle;rounded=0;orthogonalLoop=1;jettySize=auto;html=1;strokeWidth=3;" parent="WIyWlLk6GJQsqaUBKTNV-1" source="4brKPlebmC35_RfNcqNY-133" target="4brKPlebmC35_RfNcqNY-135" edge="1">
          <mxGeometry relative="1" as="geometry" />
        </mxCell>
        <mxCell id="4brKPlebmC35_RfNcqNY-133" value="&lt;div style=&quot;padding-top: 0px; padding-left: 0px; padding-right: 0px;&quot; align=&quot;center&quot;&gt;&lt;font style=&quot;font-size: 16px;&quot;&gt;click roll turn&lt;br&gt;&lt;/font&gt;&lt;/div&gt;" style="shape=parallelogram;strokeWidth=2;perimeter=parallelogramPerimeter;rounded=1;arcSize=12;size=0.23;fixedWidth=0;autosize=0;expand=1;whiteSpace=wrap;html=1;align=center;labelBorderColor=none;textShadow=0;labelBackgroundColor=none;spacingLeft=0;spacingRight=0;spacing=32;" parent="WIyWlLk6GJQsqaUBKTNV-1" vertex="1">
          <mxGeometry x="585.5" y="1605" width="180" height="90" as="geometry" />
        </mxCell>
        <mxCell id="4brKPlebmC35_RfNcqNY-138" value="" style="edgeStyle=orthogonalEdgeStyle;rounded=0;orthogonalLoop=1;jettySize=auto;html=1;strokeWidth=3;" parent="WIyWlLk6GJQsqaUBKTNV-1" source="4brKPlebmC35_RfNcqNY-135" target="4brKPlebmC35_RfNcqNY-137" edge="1">
          <mxGeometry relative="1" as="geometry" />
        </mxCell>
        <mxCell id="4brKPlebmC35_RfNcqNY-135" value="&lt;font size=&quot;3&quot;&gt;get random number&lt;br&gt;&lt;/font&gt;" style="rounded=1;whiteSpace=wrap;html=1;absoluteArcSize=1;arcSize=14;strokeWidth=2;labelBorderColor=none;" parent="WIyWlLk6GJQsqaUBKTNV-1" vertex="1">
          <mxGeometry x="320.5" y="1600" width="190" height="100" as="geometry" />
        </mxCell>
        <mxCell id="4brKPlebmC35_RfNcqNY-140" value="" style="edgeStyle=orthogonalEdgeStyle;rounded=0;orthogonalLoop=1;jettySize=auto;html=1;strokeWidth=3;" parent="WIyWlLk6GJQsqaUBKTNV-1" source="4brKPlebmC35_RfNcqNY-137" target="4brKPlebmC35_RfNcqNY-139" edge="1">
          <mxGeometry relative="1" as="geometry" />
        </mxCell>
        <mxCell id="4brKPlebmC35_RfNcqNY-137" value="&lt;font size=&quot;3&quot;&gt;display the players turn by highest number&lt;br&gt;&lt;/font&gt;" style="strokeWidth=2;html=1;shape=mxgraph.flowchart.display;whiteSpace=wrap;labelBorderColor=none;spacing=22;" parent="WIyWlLk6GJQsqaUBKTNV-1" vertex="1">
          <mxGeometry x="68.75" y="1605" width="170" height="90" as="geometry" />
        </mxCell>
        <mxCell id="4brKPlebmC35_RfNcqNY-152" value="" style="edgeStyle=orthogonalEdgeStyle;rounded=0;orthogonalLoop=1;jettySize=auto;html=1;strokeWidth=3;" parent="WIyWlLk6GJQsqaUBKTNV-1" source="4brKPlebmC35_RfNcqNY-139" target="4brKPlebmC35_RfNcqNY-151" edge="1">
          <mxGeometry relative="1" as="geometry" />
        </mxCell>
        <mxCell id="4brKPlebmC35_RfNcqNY-139" value="&lt;font size=&quot;3&quot;&gt;change the buttons&lt;br&gt;- roll turn &amp;gt; surrender&lt;br&gt;&lt;/font&gt;" style="rounded=1;whiteSpace=wrap;html=1;absoluteArcSize=1;arcSize=14;strokeWidth=2;labelBorderColor=none;" parent="WIyWlLk6GJQsqaUBKTNV-1" vertex="1">
          <mxGeometry x="58.75" y="1749" width="190" height="100" as="geometry" />
        </mxCell>
        <mxCell id="4brKPlebmC35_RfNcqNY-142" value="&lt;font style=&quot;font-size: 18px;&quot;&gt;A&lt;/font&gt;" style="ellipse;whiteSpace=wrap;html=1;aspect=fixed;strokeWidth=2;" parent="WIyWlLk6GJQsqaUBKTNV-1" vertex="1">
          <mxGeometry x="2300" y="800" width="50" height="50" as="geometry" />
        </mxCell>
        <mxCell id="4brKPlebmC35_RfNcqNY-148" value="" style="edgeStyle=orthogonalEdgeStyle;rounded=0;orthogonalLoop=1;jettySize=auto;html=1;entryX=0;entryY=0.5;entryDx=0;entryDy=0;entryPerimeter=0;exitX=0.5;exitY=0;exitDx=0;exitDy=0;strokeWidth=3;" parent="WIyWlLk6GJQsqaUBKTNV-1" source="4brKPlebmC35_RfNcqNY-146" target="4brKPlebmC35_RfNcqNY-115" edge="1">
          <mxGeometry relative="1" as="geometry" />
        </mxCell>
        <mxCell id="4brKPlebmC35_RfNcqNY-146" value="&lt;font style=&quot;font-size: 18px;&quot;&gt;A&lt;/font&gt;" style="ellipse;whiteSpace=wrap;html=1;aspect=fixed;strokeWidth=2;" parent="WIyWlLk6GJQsqaUBKTNV-1" vertex="1">
          <mxGeometry x="52.5" y="1365" width="50" height="50" as="geometry" />
        </mxCell>
        <mxCell id="4brKPlebmC35_RfNcqNY-154" value="" style="edgeStyle=orthogonalEdgeStyle;rounded=0;orthogonalLoop=1;jettySize=auto;html=1;strokeWidth=3;" parent="WIyWlLk6GJQsqaUBKTNV-1" source="4brKPlebmC35_RfNcqNY-151" target="4brKPlebmC35_RfNcqNY-153" edge="1">
          <mxGeometry relative="1" as="geometry" />
        </mxCell>
        <mxCell id="4brKPlebmC35_RfNcqNY-151" value="&lt;font size=&quot;3&quot;&gt;start the game&lt;br&gt;&lt;/font&gt;" style="rounded=1;whiteSpace=wrap;html=1;absoluteArcSize=1;arcSize=14;strokeWidth=2;labelBorderColor=none;" parent="WIyWlLk6GJQsqaUBKTNV-1" vertex="1">
          <mxGeometry x="320.5" y="1749" width="190" height="100" as="geometry" />
        </mxCell>
        <mxCell id="4brKPlebmC35_RfNcqNY-161" value="" style="edgeStyle=orthogonalEdgeStyle;rounded=0;orthogonalLoop=1;jettySize=auto;html=1;strokeWidth=3;" parent="WIyWlLk6GJQsqaUBKTNV-1" source="4brKPlebmC35_RfNcqNY-153" target="4brKPlebmC35_RfNcqNY-158" edge="1">
          <mxGeometry relative="1" as="geometry" />
        </mxCell>
        <mxCell id="4brKPlebmC35_RfNcqNY-153" value="&lt;div style=&quot;padding-top: 0px; padding-left: 0px; padding-right: 0px;&quot; align=&quot;center&quot;&gt;&lt;font style=&quot;font-size: 16px;&quot;&gt;&lt;b&gt;player&lt;/b&gt;&lt;br&gt;click roll dice&lt;br&gt;&lt;/font&gt;&lt;/div&gt;" style="shape=parallelogram;strokeWidth=2;perimeter=parallelogramPerimeter;rounded=1;arcSize=12;size=0.23;fixedWidth=0;autosize=0;expand=1;whiteSpace=wrap;html=1;align=center;labelBorderColor=none;textShadow=0;labelBackgroundColor=none;spacingLeft=0;spacingRight=0;spacing=32;" parent="WIyWlLk6GJQsqaUBKTNV-1" vertex="1">
          <mxGeometry x="325.5" y="1895" width="180" height="90" as="geometry" />
        </mxCell>
        <mxCell id="4brKPlebmC35_RfNcqNY-165" value="" style="edgeStyle=orthogonalEdgeStyle;rounded=0;orthogonalLoop=1;jettySize=auto;html=1;strokeWidth=3;" parent="WIyWlLk6GJQsqaUBKTNV-1" source="4brKPlebmC35_RfNcqNY-158" target="4brKPlebmC35_RfNcqNY-164" edge="1">
          <mxGeometry relative="1" as="geometry" />
        </mxCell>
        <mxCell id="4brKPlebmC35_RfNcqNY-158" value="&lt;font size=&quot;3&quot;&gt;get dice number then move the player&lt;br&gt;&lt;/font&gt;" style="rounded=1;whiteSpace=wrap;html=1;absoluteArcSize=1;arcSize=14;strokeWidth=2;labelBorderColor=none;" parent="WIyWlLk6GJQsqaUBKTNV-1" vertex="1">
          <mxGeometry x="58.75" y="1890" width="190" height="100" as="geometry" />
        </mxCell>
        <mxCell id="ZLYqppgL18RUkVddhI8T-0" value="" style="edgeStyle=orthogonalEdgeStyle;rounded=0;orthogonalLoop=1;jettySize=auto;html=1;strokeWidth=3;" parent="WIyWlLk6GJQsqaUBKTNV-1" source="4brKPlebmC35_RfNcqNY-164" target="4brKPlebmC35_RfNcqNY-169" edge="1">
          <mxGeometry relative="1" as="geometry" />
        </mxCell>
        <mxCell id="ZLYqppgL18RUkVddhI8T-1" value="&lt;font style=&quot;font-size: 18px;&quot;&gt;YES&lt;/font&gt;" style="edgeLabel;html=1;align=center;verticalAlign=middle;resizable=0;points=[];" parent="ZLYqppgL18RUkVddhI8T-0" vertex="1" connectable="0">
          <mxGeometry x="-0.1334" relative="1" as="geometry">
            <mxPoint x="2" y="2" as="offset" />
          </mxGeometry>
        </mxCell>
        <mxCell id="ZLYqppgL18RUkVddhI8T-4" style="edgeStyle=orthogonalEdgeStyle;rounded=0;orthogonalLoop=1;jettySize=auto;html=1;strokeWidth=3;" parent="WIyWlLk6GJQsqaUBKTNV-1" source="4brKPlebmC35_RfNcqNY-164" target="ZLYqppgL18RUkVddhI8T-2" edge="1">
          <mxGeometry relative="1" as="geometry" />
        </mxCell>
        <mxCell id="ZLYqppgL18RUkVddhI8T-5" value="&lt;font style=&quot;font-size: 18px;&quot;&gt;NO&lt;/font&gt;" style="edgeLabel;html=1;align=center;verticalAlign=middle;resizable=0;points=[];" parent="ZLYqppgL18RUkVddhI8T-4" vertex="1" connectable="0">
          <mxGeometry x="-0.008" y="1" relative="1" as="geometry">
            <mxPoint x="3" y="1" as="offset" />
          </mxGeometry>
        </mxCell>
        <mxCell id="4brKPlebmC35_RfNcqNY-164" value="&lt;font size=&quot;3&quot;&gt;lap &amp;gt; 1&lt;/font&gt;" style="strokeWidth=2;html=1;shape=mxgraph.flowchart.decision;whiteSpace=wrap;" parent="WIyWlLk6GJQsqaUBKTNV-1" vertex="1">
          <mxGeometry x="84.75" y="2085" width="136" height="140" as="geometry" />
        </mxCell>
        <mxCell id="ZLYqppgL18RUkVddhI8T-14" value="" style="edgeStyle=orthogonalEdgeStyle;rounded=0;orthogonalLoop=1;jettySize=auto;html=1;strokeWidth=3;" parent="WIyWlLk6GJQsqaUBKTNV-1" source="4brKPlebmC35_RfNcqNY-166" target="ZLYqppgL18RUkVddhI8T-8" edge="1">
          <mxGeometry relative="1" as="geometry" />
        </mxCell>
        <mxCell id="4brKPlebmC35_RfNcqNY-166" value="&lt;div&gt;&lt;font size=&quot;3&quot;&gt;&lt;b&gt;client&lt;br&gt;&lt;/b&gt;&lt;/font&gt;&lt;/div&gt;&lt;div&gt;&lt;font size=&quot;3&quot;&gt;send payload&lt;/font&gt;&lt;/div&gt;&lt;font size=&quot;3&quot;&gt;(&lt;/font&gt;&lt;font size=&quot;3&quot;&gt;pos, money, card, city) &lt;/font&gt;" style="rounded=1;whiteSpace=wrap;html=1;absoluteArcSize=1;arcSize=14;strokeWidth=3;labelBorderColor=none;perimeterSpacing=0;strokeColor=#004C99;" parent="WIyWlLk6GJQsqaUBKTNV-1" vertex="1">
          <mxGeometry x="560" y="1749" width="190" height="100" as="geometry" />
        </mxCell>
        <mxCell id="ZLYqppgL18RUkVddhI8T-41" value="" style="edgeStyle=orthogonalEdgeStyle;rounded=0;orthogonalLoop=1;jettySize=auto;html=1;strokeWidth=3;" parent="WIyWlLk6GJQsqaUBKTNV-1" source="4brKPlebmC35_RfNcqNY-169" target="ZLYqppgL18RUkVddhI8T-40" edge="1">
          <mxGeometry relative="1" as="geometry" />
        </mxCell>
        <mxCell id="4brKPlebmC35_RfNcqNY-169" value="&lt;div&gt;&lt;font size=&quot;3&quot;&gt;&lt;b&gt;client&lt;br&gt;&lt;/b&gt;&lt;/font&gt;&lt;/div&gt;&lt;div&gt;&lt;font size=&quot;3&quot;&gt;get the square (position) info&lt;/font&gt;&lt;/div&gt;" style="rounded=1;whiteSpace=wrap;html=1;absoluteArcSize=1;arcSize=14;strokeWidth=2;labelBorderColor=none;" parent="WIyWlLk6GJQsqaUBKTNV-1" vertex="1">
          <mxGeometry x="325.5" y="2195" width="190" height="100" as="geometry" />
        </mxCell>
        <mxCell id="ZLYqppgL18RUkVddhI8T-112" style="edgeStyle=orthogonalEdgeStyle;rounded=0;orthogonalLoop=1;jettySize=auto;html=1;entryX=0.25;entryY=1;entryDx=0;entryDy=0;strokeWidth=3;" parent="WIyWlLk6GJQsqaUBKTNV-1" source="ZLYqppgL18RUkVddhI8T-2" target="4brKPlebmC35_RfNcqNY-166" edge="1">
          <mxGeometry relative="1" as="geometry">
            <Array as="points">
              <mxPoint x="570" y="2075" />
              <mxPoint x="570" y="1895" />
              <mxPoint x="607" y="1895" />
            </Array>
          </mxGeometry>
        </mxCell>
        <mxCell id="ZLYqppgL18RUkVddhI8T-2" value="&lt;font size=&quot;3&quot;&gt;&lt;b&gt;client&lt;/b&gt;&lt;br&gt;filter the inputs (length &amp;amp; regex)&lt;/font&gt;" style="rounded=1;whiteSpace=wrap;html=1;absoluteArcSize=1;arcSize=14;strokeWidth=2;labelBorderColor=none;" parent="WIyWlLk6GJQsqaUBKTNV-1" vertex="1">
          <mxGeometry x="325.5" y="2025" width="190" height="100" as="geometry" />
        </mxCell>
        <mxCell id="ZLYqppgL18RUkVddhI8T-15" value="" style="edgeStyle=orthogonalEdgeStyle;rounded=0;orthogonalLoop=1;jettySize=auto;html=1;strokeWidth=3;" parent="WIyWlLk6GJQsqaUBKTNV-1" source="ZLYqppgL18RUkVddhI8T-8" target="ZLYqppgL18RUkVddhI8T-11" edge="1">
          <mxGeometry relative="1" as="geometry" />
        </mxCell>
        <mxCell id="ZLYqppgL18RUkVddhI8T-8" value="&lt;font size=&quot;3&quot;&gt;&lt;b&gt;server&lt;/b&gt;&lt;br&gt;filter the payload (num of inputs, typeof, length, regex)&lt;br&gt;&lt;/font&gt;" style="rounded=1;whiteSpace=wrap;html=1;absoluteArcSize=1;arcSize=14;strokeWidth=2;labelBorderColor=none;" parent="WIyWlLk6GJQsqaUBKTNV-1" vertex="1">
          <mxGeometry x="800" y="1599" width="190" height="100" as="geometry" />
        </mxCell>
        <mxCell id="ZLYqppgL18RUkVddhI8T-17" value="" style="edgeStyle=orthogonalEdgeStyle;rounded=0;orthogonalLoop=1;jettySize=auto;html=1;strokeWidth=3;" parent="WIyWlLk6GJQsqaUBKTNV-1" source="ZLYqppgL18RUkVddhI8T-9" target="ZLYqppgL18RUkVddhI8T-10" edge="1">
          <mxGeometry relative="1" as="geometry" />
        </mxCell>
        <mxCell id="ZLYqppgL18RUkVddhI8T-28" value="" style="edgeStyle=orthogonalEdgeStyle;rounded=0;orthogonalLoop=1;jettySize=auto;html=1;strokeWidth=3;" parent="WIyWlLk6GJQsqaUBKTNV-1" source="ZLYqppgL18RUkVddhI8T-9" target="ZLYqppgL18RUkVddhI8T-27" edge="1">
          <mxGeometry relative="1" as="geometry" />
        </mxCell>
        <mxCell id="ZLYqppgL18RUkVddhI8T-9" value="&lt;font size=&quot;3&quot;&gt;store to database&lt;br&gt;&lt;/font&gt;" style="rounded=1;whiteSpace=wrap;html=1;absoluteArcSize=1;arcSize=14;strokeWidth=2;labelBorderColor=none;" parent="WIyWlLk6GJQsqaUBKTNV-1" vertex="1">
          <mxGeometry x="1260" y="1599" width="190" height="100" as="geometry" />
        </mxCell>
        <mxCell id="ZLYqppgL18RUkVddhI8T-10" value="&lt;p style=&quot;line-height: 120%; padding-bottom: 0px; margin-top: 0px; margin-bottom: 20px;&quot;&gt;&lt;font size=&quot;3&quot;&gt;games&lt;br&gt;&lt;/font&gt;&lt;/p&gt;" style="strokeWidth=2;html=1;shape=mxgraph.flowchart.merge_or_storage;whiteSpace=wrap;labelBorderColor=none;spacing=22;verticalAlign=middle;horizontal=1;labelPosition=center;verticalLabelPosition=middle;align=center;" parent="WIyWlLk6GJQsqaUBKTNV-1" vertex="1">
          <mxGeometry x="1290" y="1475" width="130" height="80" as="geometry" />
        </mxCell>
        <mxCell id="ZLYqppgL18RUkVddhI8T-16" value="" style="edgeStyle=orthogonalEdgeStyle;rounded=0;orthogonalLoop=1;jettySize=auto;html=1;strokeWidth=3;" parent="WIyWlLk6GJQsqaUBKTNV-1" source="ZLYqppgL18RUkVddhI8T-11" target="ZLYqppgL18RUkVddhI8T-9" edge="1">
          <mxGeometry relative="1" as="geometry" />
        </mxCell>
        <mxCell id="ZLYqppgL18RUkVddhI8T-25" value="&lt;font style=&quot;font-size: 18px;&quot;&gt;YES&lt;/font&gt;" style="edgeLabel;html=1;align=center;verticalAlign=middle;resizable=0;points=[];" parent="ZLYqppgL18RUkVddhI8T-16" vertex="1" connectable="0">
          <mxGeometry x="-0.0096" y="-1" relative="1" as="geometry">
            <mxPoint x="-3" y="-1" as="offset" />
          </mxGeometry>
        </mxCell>
        <mxCell id="ZLYqppgL18RUkVddhI8T-19" value="" style="edgeStyle=orthogonalEdgeStyle;rounded=0;orthogonalLoop=1;jettySize=auto;html=1;strokeWidth=3;" parent="WIyWlLk6GJQsqaUBKTNV-1" source="ZLYqppgL18RUkVddhI8T-11" target="ZLYqppgL18RUkVddhI8T-12" edge="1">
          <mxGeometry relative="1" as="geometry" />
        </mxCell>
        <mxCell id="ZLYqppgL18RUkVddhI8T-26" value="&lt;font style=&quot;font-size: 18px;&quot;&gt;NO&lt;/font&gt;" style="edgeLabel;html=1;align=center;verticalAlign=middle;resizable=0;points=[];" parent="ZLYqppgL18RUkVddhI8T-19" vertex="1" connectable="0">
          <mxGeometry x="-0.2353" y="-1" relative="1" as="geometry">
            <mxPoint as="offset" />
          </mxGeometry>
        </mxCell>
        <mxCell id="ZLYqppgL18RUkVddhI8T-11" value="&lt;font size=&quot;3&quot;&gt;filter success?&lt;/font&gt;" style="strokeWidth=2;html=1;shape=mxgraph.flowchart.decision;whiteSpace=wrap;spacing=22;" parent="WIyWlLk6GJQsqaUBKTNV-1" vertex="1">
          <mxGeometry x="1046.63" y="1589" width="116.75" height="120" as="geometry" />
        </mxCell>
        <mxCell id="ZLYqppgL18RUkVddhI8T-93" style="edgeStyle=orthogonalEdgeStyle;rounded=0;orthogonalLoop=1;jettySize=auto;html=1;entryX=1;entryY=0.5;entryDx=0;entryDy=0;strokeWidth=3;" parent="WIyWlLk6GJQsqaUBKTNV-1" source="ZLYqppgL18RUkVddhI8T-12" target="4brKPlebmC35_RfNcqNY-153" edge="1">
          <mxGeometry relative="1" as="geometry">
            <Array as="points">
              <mxPoint x="1105" y="1915" />
              <mxPoint x="540" y="1915" />
              <mxPoint x="540" y="1940" />
            </Array>
          </mxGeometry>
        </mxCell>
        <mxCell id="ZLYqppgL18RUkVddhI8T-12" value="&lt;font size=&quot;3&quot;&gt;&lt;b&gt;client&lt;/b&gt;&lt;br&gt;display error message&lt;br&gt;&lt;/font&gt;" style="strokeWidth=2;html=1;shape=mxgraph.flowchart.display;whiteSpace=wrap;labelBorderColor=none;spacing=22;" parent="WIyWlLk6GJQsqaUBKTNV-1" vertex="1">
          <mxGeometry x="1020.0000000000002" y="1775" width="170" height="90" as="geometry" />
        </mxCell>
        <mxCell id="ZLYqppgL18RUkVddhI8T-27" value="&lt;font size=&quot;3&quot;&gt;END&lt;/font&gt;" style="strokeWidth=2;html=1;shape=mxgraph.flowchart.terminator;whiteSpace=wrap;" parent="WIyWlLk6GJQsqaUBKTNV-1" vertex="1">
          <mxGeometry x="1510.99" y="1619" width="100" height="60" as="geometry" />
        </mxCell>
        <mxCell id="ZLYqppgL18RUkVddhI8T-33" value="" style="edgeStyle=orthogonalEdgeStyle;rounded=0;orthogonalLoop=1;jettySize=auto;html=1;strokeWidth=3;" parent="WIyWlLk6GJQsqaUBKTNV-1" edge="1">
          <mxGeometry relative="1" as="geometry">
            <mxPoint x="971.625" y="1780" as="sourcePoint" />
          </mxGeometry>
        </mxCell>
        <mxCell id="ZLYqppgL18RUkVddhI8T-34" value="&lt;font style=&quot;font-size: 18px;&quot;&gt;NO&lt;/font&gt;" style="edgeLabel;html=1;align=center;verticalAlign=middle;resizable=0;points=[];" parent="ZLYqppgL18RUkVddhI8T-33" vertex="1" connectable="0">
          <mxGeometry x="-0.2" relative="1" as="geometry">
            <mxPoint as="offset" />
          </mxGeometry>
        </mxCell>
        <mxCell id="ZLYqppgL18RUkVddhI8T-43" value="" style="edgeStyle=orthogonalEdgeStyle;rounded=0;orthogonalLoop=1;jettySize=auto;html=1;strokeWidth=3;" parent="WIyWlLk6GJQsqaUBKTNV-1" source="ZLYqppgL18RUkVddhI8T-40" target="ZLYqppgL18RUkVddhI8T-42" edge="1">
          <mxGeometry relative="1" as="geometry" />
        </mxCell>
        <mxCell id="ZLYqppgL18RUkVddhI8T-48" value="&lt;font style=&quot;font-size: 18px;&quot;&gt;YES&lt;/font&gt;" style="edgeLabel;html=1;align=center;verticalAlign=middle;resizable=0;points=[];" parent="ZLYqppgL18RUkVddhI8T-43" vertex="1" connectable="0">
          <mxGeometry x="-0.1886" y="3" relative="1" as="geometry">
            <mxPoint as="offset" />
          </mxGeometry>
        </mxCell>
        <mxCell id="ZLYqppgL18RUkVddhI8T-47" value="" style="edgeStyle=orthogonalEdgeStyle;rounded=0;orthogonalLoop=1;jettySize=auto;html=1;strokeWidth=3;" parent="WIyWlLk6GJQsqaUBKTNV-1" source="ZLYqppgL18RUkVddhI8T-40" target="ZLYqppgL18RUkVddhI8T-46" edge="1">
          <mxGeometry relative="1" as="geometry" />
        </mxCell>
        <mxCell id="ZLYqppgL18RUkVddhI8T-52" value="&lt;font style=&quot;font-size: 18px;&quot;&gt;NO&lt;/font&gt;" style="edgeLabel;html=1;align=center;verticalAlign=middle;resizable=0;points=[];" parent="ZLYqppgL18RUkVddhI8T-47" vertex="1" connectable="0">
          <mxGeometry x="-0.0704" y="-1" relative="1" as="geometry">
            <mxPoint x="-6" y="-1" as="offset" />
          </mxGeometry>
        </mxCell>
        <mxCell id="ZLYqppgL18RUkVddhI8T-40" value="&lt;font size=&quot;3&quot;&gt;is city?&lt;/font&gt;" style="strokeWidth=2;html=1;shape=mxgraph.flowchart.decision;whiteSpace=wrap;spacing=22;" parent="WIyWlLk6GJQsqaUBKTNV-1" vertex="1">
          <mxGeometry x="576.6300000000001" y="2185" width="116.75" height="120" as="geometry" />
        </mxCell>
        <mxCell id="ZLYqppgL18RUkVddhI8T-42" value="&lt;font style=&quot;font-size: 18px;&quot;&gt;1A&lt;/font&gt;" style="ellipse;whiteSpace=wrap;html=1;aspect=fixed;strokeWidth=2;" parent="WIyWlLk6GJQsqaUBKTNV-1" vertex="1">
          <mxGeometry x="610" y="2075" width="50" height="50" as="geometry" />
        </mxCell>
        <mxCell id="ZLYqppgL18RUkVddhI8T-50" value="" style="edgeStyle=orthogonalEdgeStyle;rounded=0;orthogonalLoop=1;jettySize=auto;html=1;strokeWidth=3;" parent="WIyWlLk6GJQsqaUBKTNV-1" source="ZLYqppgL18RUkVddhI8T-46" target="ZLYqppgL18RUkVddhI8T-49" edge="1">
          <mxGeometry relative="1" as="geometry" />
        </mxCell>
        <mxCell id="ZLYqppgL18RUkVddhI8T-51" value="&lt;font style=&quot;font-size: 18px;&quot;&gt;YES&lt;/font&gt;" style="edgeLabel;html=1;align=center;verticalAlign=middle;resizable=0;points=[];" parent="ZLYqppgL18RUkVddhI8T-50" vertex="1" connectable="0">
          <mxGeometry x="-0.0857" relative="1" as="geometry">
            <mxPoint as="offset" />
          </mxGeometry>
        </mxCell>
        <mxCell id="ZLYqppgL18RUkVddhI8T-66" value="" style="edgeStyle=orthogonalEdgeStyle;rounded=0;orthogonalLoop=1;jettySize=auto;html=1;strokeWidth=3;" parent="WIyWlLk6GJQsqaUBKTNV-1" source="ZLYqppgL18RUkVddhI8T-46" target="ZLYqppgL18RUkVddhI8T-60" edge="1">
          <mxGeometry relative="1" as="geometry" />
        </mxCell>
        <mxCell id="ZLYqppgL18RUkVddhI8T-67" value="&lt;font style=&quot;font-size: 18px;&quot;&gt;NO&lt;/font&gt;" style="edgeLabel;html=1;align=center;verticalAlign=middle;resizable=0;points=[];" parent="ZLYqppgL18RUkVddhI8T-66" vertex="1" connectable="0">
          <mxGeometry x="-0.1381" relative="1" as="geometry">
            <mxPoint as="offset" />
          </mxGeometry>
        </mxCell>
        <mxCell id="ZLYqppgL18RUkVddhI8T-46" value="&lt;font size=&quot;3&quot;&gt;is card?&lt;/font&gt;" style="strokeWidth=2;html=1;shape=mxgraph.flowchart.decision;whiteSpace=wrap;spacing=22;" parent="WIyWlLk6GJQsqaUBKTNV-1" vertex="1">
          <mxGeometry x="763.2500000000001" y="2185" width="116.75" height="120" as="geometry" />
        </mxCell>
        <mxCell id="ZLYqppgL18RUkVddhI8T-49" value="&lt;font style=&quot;font-size: 18px;&quot;&gt;1B&lt;/font&gt;" style="ellipse;whiteSpace=wrap;html=1;aspect=fixed;strokeWidth=2;" parent="WIyWlLk6GJQsqaUBKTNV-1" vertex="1">
          <mxGeometry x="796.63" y="2075" width="50" height="50" as="geometry" />
        </mxCell>
        <mxCell id="ZLYqppgL18RUkVddhI8T-56" value="" style="edgeStyle=orthogonalEdgeStyle;rounded=0;orthogonalLoop=1;jettySize=auto;html=1;strokeWidth=3;" parent="WIyWlLk6GJQsqaUBKTNV-1" source="ZLYqppgL18RUkVddhI8T-60" target="ZLYqppgL18RUkVddhI8T-61" edge="1">
          <mxGeometry relative="1" as="geometry" />
        </mxCell>
        <mxCell id="ZLYqppgL18RUkVddhI8T-57" value="&lt;font style=&quot;font-size: 18px;&quot;&gt;YES&lt;/font&gt;" style="edgeLabel;html=1;align=center;verticalAlign=middle;resizable=0;points=[];" parent="ZLYqppgL18RUkVddhI8T-56" vertex="1" connectable="0">
          <mxGeometry x="-0.1886" y="3" relative="1" as="geometry">
            <mxPoint as="offset" />
          </mxGeometry>
        </mxCell>
        <mxCell id="ZLYqppgL18RUkVddhI8T-58" value="" style="edgeStyle=orthogonalEdgeStyle;rounded=0;orthogonalLoop=1;jettySize=auto;html=1;strokeWidth=3;" parent="WIyWlLk6GJQsqaUBKTNV-1" source="ZLYqppgL18RUkVddhI8T-60" target="ZLYqppgL18RUkVddhI8T-64" edge="1">
          <mxGeometry relative="1" as="geometry" />
        </mxCell>
        <mxCell id="ZLYqppgL18RUkVddhI8T-59" value="&lt;font style=&quot;font-size: 18px;&quot;&gt;NO&lt;/font&gt;" style="edgeLabel;html=1;align=center;verticalAlign=middle;resizable=0;points=[];" parent="ZLYqppgL18RUkVddhI8T-58" vertex="1" connectable="0">
          <mxGeometry x="-0.0704" y="-1" relative="1" as="geometry">
            <mxPoint x="-6" y="-1" as="offset" />
          </mxGeometry>
        </mxCell>
        <mxCell id="ZLYqppgL18RUkVddhI8T-60" value="&lt;font size=&quot;3&quot;&gt;is prison?&lt;/font&gt;" style="strokeWidth=2;html=1;shape=mxgraph.flowchart.decision;whiteSpace=wrap;spacing=22;" parent="WIyWlLk6GJQsqaUBKTNV-1" vertex="1">
          <mxGeometry x="950.0000000000001" y="2185" width="116.75" height="120" as="geometry" />
        </mxCell>
        <mxCell id="ZLYqppgL18RUkVddhI8T-61" value="&lt;font style=&quot;font-size: 18px;&quot;&gt;1C&lt;/font&gt;" style="ellipse;whiteSpace=wrap;html=1;aspect=fixed;strokeWidth=2;" parent="WIyWlLk6GJQsqaUBKTNV-1" vertex="1">
          <mxGeometry x="983.37" y="2075" width="50" height="50" as="geometry" />
        </mxCell>
        <mxCell id="ZLYqppgL18RUkVddhI8T-62" value="" style="edgeStyle=orthogonalEdgeStyle;rounded=0;orthogonalLoop=1;jettySize=auto;html=1;strokeWidth=3;" parent="WIyWlLk6GJQsqaUBKTNV-1" source="ZLYqppgL18RUkVddhI8T-64" target="ZLYqppgL18RUkVddhI8T-65" edge="1">
          <mxGeometry relative="1" as="geometry" />
        </mxCell>
        <mxCell id="ZLYqppgL18RUkVddhI8T-63" value="&lt;font style=&quot;font-size: 18px;&quot;&gt;YES&lt;/font&gt;" style="edgeLabel;html=1;align=center;verticalAlign=middle;resizable=0;points=[];" parent="ZLYqppgL18RUkVddhI8T-62" vertex="1" connectable="0">
          <mxGeometry x="-0.0857" relative="1" as="geometry">
            <mxPoint as="offset" />
          </mxGeometry>
        </mxCell>
        <mxCell id="ZLYqppgL18RUkVddhI8T-90" value="" style="edgeStyle=orthogonalEdgeStyle;rounded=0;orthogonalLoop=1;jettySize=auto;html=1;strokeWidth=3;" parent="WIyWlLk6GJQsqaUBKTNV-1" source="ZLYqppgL18RUkVddhI8T-64" target="ZLYqppgL18RUkVddhI8T-84" edge="1">
          <mxGeometry relative="1" as="geometry" />
        </mxCell>
        <mxCell id="ZLYqppgL18RUkVddhI8T-91" value="&lt;font style=&quot;font-size: 18px;&quot;&gt;NO&lt;/font&gt;" style="edgeLabel;html=1;align=center;verticalAlign=middle;resizable=0;points=[];" parent="ZLYqppgL18RUkVddhI8T-90" vertex="1" connectable="0">
          <mxGeometry x="-0.2131" y="3" relative="1" as="geometry">
            <mxPoint as="offset" />
          </mxGeometry>
        </mxCell>
        <mxCell id="ZLYqppgL18RUkVddhI8T-64" value="&lt;font size=&quot;3&quot;&gt;is free park?&lt;/font&gt;" style="strokeWidth=2;html=1;shape=mxgraph.flowchart.decision;whiteSpace=wrap;spacing=22;" parent="WIyWlLk6GJQsqaUBKTNV-1" vertex="1">
          <mxGeometry x="1136.6200000000001" y="2185" width="116.75" height="120" as="geometry" />
        </mxCell>
        <mxCell id="ZLYqppgL18RUkVddhI8T-65" value="&lt;font style=&quot;font-size: 18px;&quot;&gt;1D&lt;/font&gt;" style="ellipse;whiteSpace=wrap;html=1;aspect=fixed;strokeWidth=2;" parent="WIyWlLk6GJQsqaUBKTNV-1" vertex="1">
          <mxGeometry x="1170" y="2075" width="50" height="50" as="geometry" />
        </mxCell>
        <mxCell id="ZLYqppgL18RUkVddhI8T-80" value="" style="edgeStyle=orthogonalEdgeStyle;rounded=0;orthogonalLoop=1;jettySize=auto;html=1;strokeWidth=3;" parent="WIyWlLk6GJQsqaUBKTNV-1" source="ZLYqppgL18RUkVddhI8T-84" target="ZLYqppgL18RUkVddhI8T-85" edge="1">
          <mxGeometry relative="1" as="geometry" />
        </mxCell>
        <mxCell id="ZLYqppgL18RUkVddhI8T-81" value="&lt;font style=&quot;font-size: 18px;&quot;&gt;YES&lt;/font&gt;" style="edgeLabel;html=1;align=center;verticalAlign=middle;resizable=0;points=[];" parent="ZLYqppgL18RUkVddhI8T-80" vertex="1" connectable="0">
          <mxGeometry x="-0.1886" y="3" relative="1" as="geometry">
            <mxPoint as="offset" />
          </mxGeometry>
        </mxCell>
        <mxCell id="ZLYqppgL18RUkVddhI8T-82" value="" style="edgeStyle=orthogonalEdgeStyle;rounded=0;orthogonalLoop=1;jettySize=auto;html=1;strokeWidth=3;entryX=0;entryY=0.5;entryDx=0;entryDy=0;" parent="WIyWlLk6GJQsqaUBKTNV-1" source="ZLYqppgL18RUkVddhI8T-84" target="ZLYqppgL18RUkVddhI8T-118" edge="1">
          <mxGeometry relative="1" as="geometry">
            <mxPoint x="1502.62" y="2245" as="targetPoint" />
          </mxGeometry>
        </mxCell>
        <mxCell id="ZLYqppgL18RUkVddhI8T-83" value="&lt;font style=&quot;font-size: 18px;&quot;&gt;NO&lt;/font&gt;" style="edgeLabel;html=1;align=center;verticalAlign=middle;resizable=0;points=[];" parent="ZLYqppgL18RUkVddhI8T-82" vertex="1" connectable="0">
          <mxGeometry x="-0.0704" y="-1" relative="1" as="geometry">
            <mxPoint x="-6" y="-1" as="offset" />
          </mxGeometry>
        </mxCell>
        <mxCell id="ZLYqppgL18RUkVddhI8T-84" value="&lt;font size=&quot;3&quot;&gt;is curse?&lt;/font&gt;" style="strokeWidth=2;html=1;shape=mxgraph.flowchart.decision;whiteSpace=wrap;spacing=22;" parent="WIyWlLk6GJQsqaUBKTNV-1" vertex="1">
          <mxGeometry x="1316" y="2185" width="116.75" height="120" as="geometry" />
        </mxCell>
        <mxCell id="ZLYqppgL18RUkVddhI8T-85" value="&lt;font style=&quot;font-size: 18px;&quot;&gt;1E&lt;/font&gt;" style="ellipse;whiteSpace=wrap;html=1;aspect=fixed;strokeWidth=2;" parent="WIyWlLk6GJQsqaUBKTNV-1" vertex="1">
          <mxGeometry x="1349.37" y="2075" width="50" height="50" as="geometry" />
        </mxCell>
        <mxCell id="ZLYqppgL18RUkVddhI8T-86" value="" style="edgeStyle=orthogonalEdgeStyle;rounded=0;orthogonalLoop=1;jettySize=auto;html=1;strokeWidth=3;exitX=0.5;exitY=0;exitDx=0;exitDy=0;" parent="WIyWlLk6GJQsqaUBKTNV-1" source="ZLYqppgL18RUkVddhI8T-118" target="ZLYqppgL18RUkVddhI8T-89" edge="1">
          <mxGeometry relative="1" as="geometry">
            <mxPoint x="1560.9999999999995" y="2185" as="sourcePoint" />
          </mxGeometry>
        </mxCell>
        <mxCell id="ZLYqppgL18RUkVddhI8T-89" value="&lt;font style=&quot;font-size: 18px;&quot;&gt;1F&lt;/font&gt;" style="ellipse;whiteSpace=wrap;html=1;aspect=fixed;strokeWidth=2;" parent="WIyWlLk6GJQsqaUBKTNV-1" vertex="1">
          <mxGeometry x="1536" y="2075" width="50" height="50" as="geometry" />
        </mxCell>
        <mxCell id="ZLYqppgL18RUkVddhI8T-111" style="edgeStyle=orthogonalEdgeStyle;rounded=0;orthogonalLoop=1;jettySize=auto;html=1;entryX=0.75;entryY=1;entryDx=0;entryDy=0;strokeWidth=3;fillColor=#008a00;strokeColor=#005700;" parent="WIyWlLk6GJQsqaUBKTNV-1" source="ZLYqppgL18RUkVddhI8T-94" target="4brKPlebmC35_RfNcqNY-166" edge="1">
          <mxGeometry relative="1" as="geometry">
            <Array as="points">
              <mxPoint x="635" y="1935" />
              <mxPoint x="703" y="1935" />
            </Array>
          </mxGeometry>
        </mxCell>
        <mxCell id="ZLYqppgL18RUkVddhI8T-94" value="&lt;font style=&quot;font-size: 18px;&quot;&gt;2A&lt;/font&gt;" style="ellipse;whiteSpace=wrap;html=1;aspect=fixed;strokeWidth=2;" parent="WIyWlLk6GJQsqaUBKTNV-1" vertex="1">
          <mxGeometry x="610" y="1975" width="50" height="50" as="geometry" />
        </mxCell>
        <mxCell id="ZLYqppgL18RUkVddhI8T-113" style="edgeStyle=orthogonalEdgeStyle;rounded=0;orthogonalLoop=1;jettySize=auto;html=1;entryX=0.75;entryY=1;entryDx=0;entryDy=0;strokeWidth=3;fillColor=#008a00;strokeColor=#005700;" parent="WIyWlLk6GJQsqaUBKTNV-1" source="ZLYqppgL18RUkVddhI8T-95" target="4brKPlebmC35_RfNcqNY-166" edge="1">
          <mxGeometry relative="1" as="geometry">
            <Array as="points">
              <mxPoint x="822" y="1935" />
              <mxPoint x="703" y="1935" />
            </Array>
          </mxGeometry>
        </mxCell>
        <mxCell id="ZLYqppgL18RUkVddhI8T-95" value="&lt;font style=&quot;font-size: 18px;&quot;&gt;2B&lt;/font&gt;" style="ellipse;whiteSpace=wrap;html=1;aspect=fixed;strokeWidth=2;" parent="WIyWlLk6GJQsqaUBKTNV-1" vertex="1">
          <mxGeometry x="796.63" y="1975" width="50" height="50" as="geometry" />
        </mxCell>
        <mxCell id="ZLYqppgL18RUkVddhI8T-114" style="edgeStyle=orthogonalEdgeStyle;rounded=0;orthogonalLoop=1;jettySize=auto;html=1;entryX=0.75;entryY=1;entryDx=0;entryDy=0;strokeWidth=3;fillColor=#008a00;strokeColor=#005700;" parent="WIyWlLk6GJQsqaUBKTNV-1" source="ZLYqppgL18RUkVddhI8T-96" target="4brKPlebmC35_RfNcqNY-166" edge="1">
          <mxGeometry relative="1" as="geometry">
            <Array as="points">
              <mxPoint x="1008" y="1935" />
              <mxPoint x="703" y="1935" />
            </Array>
          </mxGeometry>
        </mxCell>
        <mxCell id="ZLYqppgL18RUkVddhI8T-96" value="&lt;font style=&quot;font-size: 18px;&quot;&gt;2C&lt;/font&gt;" style="ellipse;whiteSpace=wrap;html=1;aspect=fixed;strokeWidth=2;" parent="WIyWlLk6GJQsqaUBKTNV-1" vertex="1">
          <mxGeometry x="983.37" y="1975" width="50" height="50" as="geometry" />
        </mxCell>
        <mxCell id="wWXpOMj7G_PFiM4mv3d8-98" style="edgeStyle=orthogonalEdgeStyle;rounded=0;orthogonalLoop=1;jettySize=auto;html=1;strokeWidth=3;fillColor=#d80073;strokeColor=#A50040;" parent="WIyWlLk6GJQsqaUBKTNV-1" source="ZLYqppgL18RUkVddhI8T-97" target="ZLYqppgL18RUkVddhI8T-89" edge="1">
          <mxGeometry relative="1" as="geometry">
            <Array as="points">
              <mxPoint x="1195" y="2040" />
              <mxPoint x="1561" y="2040" />
            </Array>
          </mxGeometry>
        </mxCell>
        <mxCell id="wWXpOMj7G_PFiM4mv3d8-99" style="edgeStyle=orthogonalEdgeStyle;rounded=0;orthogonalLoop=1;jettySize=auto;html=1;entryX=0.5;entryY=0;entryDx=0;entryDy=0;strokeWidth=3;fillColor=#d80073;strokeColor=#A50040;" parent="WIyWlLk6GJQsqaUBKTNV-1" source="ZLYqppgL18RUkVddhI8T-97" target="ZLYqppgL18RUkVddhI8T-49" edge="1">
          <mxGeometry relative="1" as="geometry">
            <Array as="points">
              <mxPoint x="1195" y="2040" />
              <mxPoint x="822" y="2040" />
            </Array>
          </mxGeometry>
        </mxCell>
        <mxCell id="wWXpOMj7G_PFiM4mv3d8-100" style="edgeStyle=orthogonalEdgeStyle;rounded=0;orthogonalLoop=1;jettySize=auto;html=1;entryX=0.5;entryY=0;entryDx=0;entryDy=0;strokeWidth=3;fillColor=#d80073;strokeColor=#A50040;" parent="WIyWlLk6GJQsqaUBKTNV-1" source="ZLYqppgL18RUkVddhI8T-97" target="ZLYqppgL18RUkVddhI8T-42" edge="1">
          <mxGeometry relative="1" as="geometry">
            <Array as="points">
              <mxPoint x="1195" y="2040" />
              <mxPoint x="635" y="2040" />
            </Array>
          </mxGeometry>
        </mxCell>
        <mxCell id="ZLYqppgL18RUkVddhI8T-97" value="&lt;font style=&quot;font-size: 18px;&quot;&gt;2D&lt;/font&gt;" style="ellipse;whiteSpace=wrap;html=1;aspect=fixed;strokeWidth=2;" parent="WIyWlLk6GJQsqaUBKTNV-1" vertex="1">
          <mxGeometry x="1170" y="1975" width="50" height="50" as="geometry" />
        </mxCell>
        <mxCell id="ZLYqppgL18RUkVddhI8T-116" style="edgeStyle=orthogonalEdgeStyle;rounded=0;orthogonalLoop=1;jettySize=auto;html=1;entryX=0.75;entryY=1;entryDx=0;entryDy=0;strokeWidth=3;fillColor=#008a00;strokeColor=#005700;" parent="WIyWlLk6GJQsqaUBKTNV-1" source="ZLYqppgL18RUkVddhI8T-98" target="4brKPlebmC35_RfNcqNY-166" edge="1">
          <mxGeometry relative="1" as="geometry">
            <Array as="points">
              <mxPoint x="1374" y="1935" />
              <mxPoint x="703" y="1935" />
            </Array>
          </mxGeometry>
        </mxCell>
        <mxCell id="ZLYqppgL18RUkVddhI8T-98" value="&lt;font style=&quot;font-size: 18px;&quot;&gt;2E&lt;/font&gt;" style="ellipse;whiteSpace=wrap;html=1;aspect=fixed;strokeWidth=2;" parent="WIyWlLk6GJQsqaUBKTNV-1" vertex="1">
          <mxGeometry x="1350" y="1975" width="50" height="50" as="geometry" />
        </mxCell>
        <mxCell id="ZLYqppgL18RUkVddhI8T-117" style="edgeStyle=orthogonalEdgeStyle;rounded=0;orthogonalLoop=1;jettySize=auto;html=1;entryX=0.75;entryY=1;entryDx=0;entryDy=0;strokeWidth=3;fillColor=#008a00;strokeColor=#005700;" parent="WIyWlLk6GJQsqaUBKTNV-1" source="ZLYqppgL18RUkVddhI8T-99" target="4brKPlebmC35_RfNcqNY-166" edge="1">
          <mxGeometry relative="1" as="geometry">
            <Array as="points">
              <mxPoint x="1561" y="1935" />
              <mxPoint x="703" y="1935" />
            </Array>
          </mxGeometry>
        </mxCell>
        <mxCell id="wWXpOMj7G_PFiM4mv3d8-138" style="edgeStyle=orthogonalEdgeStyle;rounded=0;orthogonalLoop=1;jettySize=auto;html=1;entryX=0.5;entryY=0;entryDx=0;entryDy=0;strokeWidth=3;fillColor=#d80073;strokeColor=#A50040;" parent="WIyWlLk6GJQsqaUBKTNV-1" source="ZLYqppgL18RUkVddhI8T-99" target="ZLYqppgL18RUkVddhI8T-89" edge="1">
          <mxGeometry relative="1" as="geometry" />
        </mxCell>
        <mxCell id="wWXpOMj7G_PFiM4mv3d8-139" style="edgeStyle=orthogonalEdgeStyle;rounded=0;orthogonalLoop=1;jettySize=auto;html=1;entryX=0.5;entryY=0;entryDx=0;entryDy=0;strokeWidth=3;fillColor=#d80073;strokeColor=#A50040;" parent="WIyWlLk6GJQsqaUBKTNV-1" source="ZLYqppgL18RUkVddhI8T-99" target="ZLYqppgL18RUkVddhI8T-49" edge="1">
          <mxGeometry relative="1" as="geometry">
            <Array as="points">
              <mxPoint x="1561" y="2040" />
              <mxPoint x="822" y="2040" />
            </Array>
          </mxGeometry>
        </mxCell>
        <mxCell id="wWXpOMj7G_PFiM4mv3d8-141" style="edgeStyle=orthogonalEdgeStyle;rounded=0;orthogonalLoop=1;jettySize=auto;html=1;entryX=0.5;entryY=0;entryDx=0;entryDy=0;strokeWidth=3;fillColor=#d80073;strokeColor=#A50040;" parent="WIyWlLk6GJQsqaUBKTNV-1" source="ZLYqppgL18RUkVddhI8T-99" target="ZLYqppgL18RUkVddhI8T-42" edge="1">
          <mxGeometry relative="1" as="geometry">
            <Array as="points">
              <mxPoint x="1561" y="2040" />
              <mxPoint x="635" y="2040" />
            </Array>
          </mxGeometry>
        </mxCell>
        <mxCell id="ZLYqppgL18RUkVddhI8T-99" value="&lt;font style=&quot;font-size: 18px;&quot;&gt;2F&lt;/font&gt;" style="ellipse;whiteSpace=wrap;html=1;aspect=fixed;strokeWidth=2;" parent="WIyWlLk6GJQsqaUBKTNV-1" vertex="1">
          <mxGeometry x="1536" y="1975" width="50" height="50" as="geometry" />
        </mxCell>
        <mxCell id="ZLYqppgL18RUkVddhI8T-118" value="&lt;font size=&quot;3&quot;&gt;buff / debuff&lt;br&gt;&lt;/font&gt;" style="rounded=1;whiteSpace=wrap;html=1;absoluteArcSize=1;arcSize=14;strokeWidth=2;labelBorderColor=none;" parent="WIyWlLk6GJQsqaUBKTNV-1" vertex="1">
          <mxGeometry x="1506.49" y="2207.5" width="109.01" height="75" as="geometry" />
        </mxCell>
        <mxCell id="wWXpOMj7G_PFiM4mv3d8-4" value="Is City" style="shape=table;startSize=30;container=1;collapsible=0;childLayout=tableLayout;fontSize=18;" parent="WIyWlLk6GJQsqaUBKTNV-1" vertex="1">
          <mxGeometry x="1680" y="1200" width="770" height="520" as="geometry" />
        </mxCell>
        <mxCell id="wWXpOMj7G_PFiM4mv3d8-5" value="" style="shape=tableRow;horizontal=0;startSize=0;swimlaneHead=0;swimlaneBody=0;strokeColor=inherit;top=0;left=0;bottom=0;right=0;collapsible=0;dropTarget=0;fillColor=none;points=[[0,0.5],[1,0.5]];portConstraint=eastwest;" parent="wWXpOMj7G_PFiM4mv3d8-4" vertex="1">
          <mxGeometry y="30" width="770" height="490" as="geometry" />
        </mxCell>
        <mxCell id="wWXpOMj7G_PFiM4mv3d8-6" value="" style="shape=partialRectangle;html=1;whiteSpace=wrap;connectable=0;strokeColor=inherit;overflow=hidden;fillColor=none;top=0;left=0;bottom=0;right=0;pointerEvents=1;" parent="wWXpOMj7G_PFiM4mv3d8-5" vertex="1">
          <mxGeometry width="770" height="490" as="geometry">
            <mxRectangle width="770" height="490" as="alternateBounds" />
          </mxGeometry>
        </mxCell>
        <mxCell id="wWXpOMj7G_PFiM4mv3d8-11" value="" style="edgeStyle=orthogonalEdgeStyle;rounded=0;orthogonalLoop=1;jettySize=auto;html=1;strokeWidth=3;" parent="WIyWlLk6GJQsqaUBKTNV-1" source="wWXpOMj7G_PFiM4mv3d8-7" target="wWXpOMj7G_PFiM4mv3d8-10" edge="1">
          <mxGeometry relative="1" as="geometry" />
        </mxCell>
        <mxCell id="wWXpOMj7G_PFiM4mv3d8-7" value="&lt;font style=&quot;font-size: 18px;&quot;&gt;1A&lt;/font&gt;" style="ellipse;whiteSpace=wrap;html=1;aspect=fixed;strokeWidth=2;" parent="WIyWlLk6GJQsqaUBKTNV-1" vertex="1">
          <mxGeometry x="1705" y="1275" width="50" height="50" as="geometry" />
        </mxCell>
        <mxCell id="wWXpOMj7G_PFiM4mv3d8-15" value="" style="edgeStyle=orthogonalEdgeStyle;rounded=0;orthogonalLoop=1;jettySize=auto;html=1;strokeWidth=3;" parent="WIyWlLk6GJQsqaUBKTNV-1" source="wWXpOMj7G_PFiM4mv3d8-10" target="wWXpOMj7G_PFiM4mv3d8-14" edge="1">
          <mxGeometry relative="1" as="geometry" />
        </mxCell>
        <mxCell id="wWXpOMj7G_PFiM4mv3d8-16" value="&lt;font style=&quot;font-size: 18px;&quot;&gt;YES&lt;/font&gt;" style="edgeLabel;html=1;align=center;verticalAlign=middle;resizable=0;points=[];" parent="wWXpOMj7G_PFiM4mv3d8-15" vertex="1" connectable="0">
          <mxGeometry x="-0.0695" y="1" relative="1" as="geometry">
            <mxPoint as="offset" />
          </mxGeometry>
        </mxCell>
        <mxCell id="eBRAsDkczaqtYRSzF1OB-1" value="" style="edgeStyle=orthogonalEdgeStyle;rounded=0;orthogonalLoop=1;jettySize=auto;html=1;strokeWidth=3;" edge="1" parent="WIyWlLk6GJQsqaUBKTNV-1" source="wWXpOMj7G_PFiM4mv3d8-10" target="eBRAsDkczaqtYRSzF1OB-0">
          <mxGeometry relative="1" as="geometry" />
        </mxCell>
        <mxCell id="eBRAsDkczaqtYRSzF1OB-31" value="&lt;font style=&quot;font-size: 18px;&quot;&gt;NO&lt;/font&gt;" style="edgeLabel;html=1;align=center;verticalAlign=middle;resizable=0;points=[];" vertex="1" connectable="0" parent="eBRAsDkczaqtYRSzF1OB-1">
          <mxGeometry x="-0.0405" y="1" relative="1" as="geometry">
            <mxPoint x="-1" as="offset" />
          </mxGeometry>
        </mxCell>
        <mxCell id="wWXpOMj7G_PFiM4mv3d8-10" value="&lt;font size=&quot;3&quot;&gt;buy city?&lt;/font&gt;" style="strokeWidth=2;html=1;shape=mxgraph.flowchart.decision;whiteSpace=wrap;spacing=22;" parent="WIyWlLk6GJQsqaUBKTNV-1" vertex="1">
          <mxGeometry x="1793.25" y="1240" width="116.75" height="120" as="geometry" />
        </mxCell>
        <mxCell id="wWXpOMj7G_PFiM4mv3d8-18" value="" style="edgeStyle=orthogonalEdgeStyle;rounded=0;orthogonalLoop=1;jettySize=auto;html=1;strokeWidth=3;" parent="WIyWlLk6GJQsqaUBKTNV-1" source="wWXpOMj7G_PFiM4mv3d8-14" target="wWXpOMj7G_PFiM4mv3d8-17" edge="1">
          <mxGeometry relative="1" as="geometry" />
        </mxCell>
        <mxCell id="wWXpOMj7G_PFiM4mv3d8-19" value="&lt;font style=&quot;font-size: 18px;&quot;&gt;YES&lt;/font&gt;" style="edgeLabel;html=1;align=center;verticalAlign=middle;resizable=0;points=[];" parent="wWXpOMj7G_PFiM4mv3d8-18" vertex="1" connectable="0">
          <mxGeometry x="-0.1002" y="1" relative="1" as="geometry">
            <mxPoint as="offset" />
          </mxGeometry>
        </mxCell>
        <mxCell id="wWXpOMj7G_PFiM4mv3d8-26" value="" style="edgeStyle=orthogonalEdgeStyle;rounded=0;orthogonalLoop=1;jettySize=auto;html=1;strokeWidth=3;" parent="WIyWlLk6GJQsqaUBKTNV-1" source="wWXpOMj7G_PFiM4mv3d8-14" target="wWXpOMj7G_PFiM4mv3d8-25" edge="1">
          <mxGeometry relative="1" as="geometry" />
        </mxCell>
        <mxCell id="wWXpOMj7G_PFiM4mv3d8-27" value="&lt;font style=&quot;font-size: 18px;&quot;&gt;NO&lt;/font&gt;" style="edgeLabel;html=1;align=center;verticalAlign=middle;resizable=0;points=[];" parent="wWXpOMj7G_PFiM4mv3d8-26" vertex="1" connectable="0">
          <mxGeometry x="-0.1736" y="1" relative="1" as="geometry">
            <mxPoint as="offset" />
          </mxGeometry>
        </mxCell>
        <mxCell id="wWXpOMj7G_PFiM4mv3d8-14" value="&lt;font size=&quot;3&quot;&gt;have discount buff?&lt;/font&gt;" style="strokeWidth=2;html=1;shape=mxgraph.flowchart.decision;whiteSpace=wrap;spacing=22;" parent="WIyWlLk6GJQsqaUBKTNV-1" vertex="1">
          <mxGeometry x="2000" y="1240" width="116.75" height="120" as="geometry" />
        </mxCell>
        <mxCell id="wWXpOMj7G_PFiM4mv3d8-21" value="" style="edgeStyle=orthogonalEdgeStyle;rounded=0;orthogonalLoop=1;jettySize=auto;html=1;strokeWidth=3;" parent="WIyWlLk6GJQsqaUBKTNV-1" source="wWXpOMj7G_PFiM4mv3d8-17" target="wWXpOMj7G_PFiM4mv3d8-20" edge="1">
          <mxGeometry relative="1" as="geometry" />
        </mxCell>
        <mxCell id="wWXpOMj7G_PFiM4mv3d8-17" value="&lt;font size=&quot;3&quot;&gt;&lt;b&gt;client&lt;/b&gt;&lt;br&gt;discount the city price then pay it&lt;br&gt;&lt;/font&gt;" style="rounded=1;whiteSpace=wrap;html=1;absoluteArcSize=1;arcSize=14;strokeWidth=2;labelBorderColor=none;" parent="WIyWlLk6GJQsqaUBKTNV-1" vertex="1">
          <mxGeometry x="2210" y="1250" width="190" height="100" as="geometry" />
        </mxCell>
        <mxCell id="wWXpOMj7G_PFiM4mv3d8-31" style="edgeStyle=orthogonalEdgeStyle;rounded=0;orthogonalLoop=1;jettySize=auto;html=1;entryX=1;entryY=0.5;entryDx=0;entryDy=0;strokeWidth=3;exitX=0.5;exitY=1;exitDx=0;exitDy=0;exitPerimeter=0;" parent="WIyWlLk6GJQsqaUBKTNV-1" source="wWXpOMj7G_PFiM4mv3d8-20" target="wWXpOMj7G_PFiM4mv3d8-22" edge="1">
          <mxGeometry relative="1" as="geometry" />
        </mxCell>
        <mxCell id="wWXpOMj7G_PFiM4mv3d8-20" value="&lt;font size=&quot;3&quot;&gt;&lt;b&gt;client&lt;/b&gt;&lt;br&gt;display owner label / house icon&lt;br&gt;&lt;/font&gt;" style="strokeWidth=2;html=1;shape=mxgraph.flowchart.display;whiteSpace=wrap;labelBorderColor=none;spacing=22;" parent="WIyWlLk6GJQsqaUBKTNV-1" vertex="1">
          <mxGeometry x="2220" y="1530" width="170" height="90" as="geometry" />
        </mxCell>
        <mxCell id="wWXpOMj7G_PFiM4mv3d8-22" value="&lt;font style=&quot;font-size: 18px;&quot;&gt;2A&lt;/font&gt;" style="ellipse;whiteSpace=wrap;html=1;aspect=fixed;strokeWidth=2;" parent="WIyWlLk6GJQsqaUBKTNV-1" vertex="1">
          <mxGeometry x="2033.38" y="1654" width="50" height="50" as="geometry" />
        </mxCell>
        <mxCell id="wWXpOMj7G_PFiM4mv3d8-25" value="&lt;font size=&quot;3&quot;&gt;&lt;b&gt;client&lt;/b&gt;&lt;br&gt;pay the normal price&lt;br&gt;&lt;/font&gt;" style="rounded=1;whiteSpace=wrap;html=1;absoluteArcSize=1;arcSize=14;strokeWidth=2;labelBorderColor=none;" parent="WIyWlLk6GJQsqaUBKTNV-1" vertex="1">
          <mxGeometry x="1963.38" y="1440" width="190" height="100" as="geometry" />
        </mxCell>
        <mxCell id="wWXpOMj7G_PFiM4mv3d8-30" style="edgeStyle=orthogonalEdgeStyle;rounded=0;orthogonalLoop=1;jettySize=auto;html=1;entryX=0.5;entryY=0;entryDx=0;entryDy=0;entryPerimeter=0;strokeWidth=3;" parent="WIyWlLk6GJQsqaUBKTNV-1" source="wWXpOMj7G_PFiM4mv3d8-25" target="wWXpOMj7G_PFiM4mv3d8-20" edge="1">
          <mxGeometry relative="1" as="geometry" />
        </mxCell>
        <mxCell id="wWXpOMj7G_PFiM4mv3d8-33" value="Is Card" style="shape=table;startSize=30;container=1;collapsible=0;childLayout=tableLayout;fontSize=18;" parent="WIyWlLk6GJQsqaUBKTNV-1" vertex="1">
          <mxGeometry x="1680" y="1754" width="770" height="520" as="geometry" />
        </mxCell>
        <mxCell id="wWXpOMj7G_PFiM4mv3d8-34" value="" style="shape=tableRow;horizontal=0;startSize=0;swimlaneHead=0;swimlaneBody=0;strokeColor=inherit;top=0;left=0;bottom=0;right=0;collapsible=0;dropTarget=0;fillColor=none;points=[[0,0.5],[1,0.5]];portConstraint=eastwest;" parent="wWXpOMj7G_PFiM4mv3d8-33" vertex="1">
          <mxGeometry y="30" width="770" height="490" as="geometry" />
        </mxCell>
        <mxCell id="wWXpOMj7G_PFiM4mv3d8-35" value="" style="shape=partialRectangle;html=1;whiteSpace=wrap;connectable=0;strokeColor=inherit;overflow=hidden;fillColor=none;top=0;left=0;bottom=0;right=0;pointerEvents=1;" parent="wWXpOMj7G_PFiM4mv3d8-34" vertex="1">
          <mxGeometry width="770" height="490" as="geometry">
            <mxRectangle width="770" height="490" as="alternateBounds" />
          </mxGeometry>
        </mxCell>
        <mxCell id="wWXpOMj7G_PFiM4mv3d8-38" value="" style="edgeStyle=orthogonalEdgeStyle;rounded=0;orthogonalLoop=1;jettySize=auto;html=1;strokeWidth=3;" parent="WIyWlLk6GJQsqaUBKTNV-1" source="wWXpOMj7G_PFiM4mv3d8-36" target="wWXpOMj7G_PFiM4mv3d8-37" edge="1">
          <mxGeometry relative="1" as="geometry" />
        </mxCell>
        <mxCell id="wWXpOMj7G_PFiM4mv3d8-36" value="&lt;font style=&quot;font-size: 18px;&quot;&gt;1B&lt;/font&gt;" style="ellipse;whiteSpace=wrap;html=1;aspect=fixed;strokeWidth=2;" parent="WIyWlLk6GJQsqaUBKTNV-1" vertex="1">
          <mxGeometry x="1840.88" y="1835" width="50" height="50" as="geometry" />
        </mxCell>
        <mxCell id="wWXpOMj7G_PFiM4mv3d8-40" value="" style="edgeStyle=orthogonalEdgeStyle;rounded=0;orthogonalLoop=1;jettySize=auto;html=1;strokeWidth=3;" parent="WIyWlLk6GJQsqaUBKTNV-1" source="wWXpOMj7G_PFiM4mv3d8-37" target="wWXpOMj7G_PFiM4mv3d8-39" edge="1">
          <mxGeometry relative="1" as="geometry" />
        </mxCell>
        <mxCell id="wWXpOMj7G_PFiM4mv3d8-43" value="&lt;font style=&quot;font-size: 18px;&quot;&gt;NO&lt;/font&gt;" style="edgeLabel;html=1;align=center;verticalAlign=middle;resizable=0;points=[];" parent="wWXpOMj7G_PFiM4mv3d8-40" vertex="1" connectable="0">
          <mxGeometry x="-0.2132" y="-2" relative="1" as="geometry">
            <mxPoint as="offset" />
          </mxGeometry>
        </mxCell>
        <mxCell id="wWXpOMj7G_PFiM4mv3d8-46" style="edgeStyle=orthogonalEdgeStyle;rounded=0;orthogonalLoop=1;jettySize=auto;html=1;strokeWidth=3;" parent="WIyWlLk6GJQsqaUBKTNV-1" source="wWXpOMj7G_PFiM4mv3d8-37" target="wWXpOMj7G_PFiM4mv3d8-41" edge="1">
          <mxGeometry relative="1" as="geometry" />
        </mxCell>
        <mxCell id="wWXpOMj7G_PFiM4mv3d8-47" value="&lt;font style=&quot;font-size: 18px;&quot;&gt;YES&lt;/font&gt;" style="edgeLabel;html=1;align=center;verticalAlign=middle;resizable=0;points=[];" parent="wWXpOMj7G_PFiM4mv3d8-46" vertex="1" connectable="0">
          <mxGeometry x="-0.3224" y="-1" relative="1" as="geometry">
            <mxPoint x="-50" y="-1" as="offset" />
          </mxGeometry>
        </mxCell>
        <mxCell id="wWXpOMj7G_PFiM4mv3d8-37" value="&lt;font size=&quot;3&quot;&gt;get special card?&lt;/font&gt;" style="strokeWidth=2;html=1;shape=mxgraph.flowchart.decision;whiteSpace=wrap;spacing=22;" parent="WIyWlLk6GJQsqaUBKTNV-1" vertex="1">
          <mxGeometry x="1945.88" y="1800" width="116.75" height="120" as="geometry" />
        </mxCell>
        <mxCell id="wWXpOMj7G_PFiM4mv3d8-42" style="edgeStyle=orthogonalEdgeStyle;rounded=0;orthogonalLoop=1;jettySize=auto;html=1;strokeWidth=3;" parent="WIyWlLk6GJQsqaUBKTNV-1" source="wWXpOMj7G_PFiM4mv3d8-39" target="wWXpOMj7G_PFiM4mv3d8-41" edge="1">
          <mxGeometry relative="1" as="geometry" />
        </mxCell>
        <mxCell id="wWXpOMj7G_PFiM4mv3d8-39" value="&lt;font size=&quot;3&quot;&gt;&lt;b&gt;client&lt;/b&gt;&lt;br&gt;run card effect&lt;br&gt;&lt;/font&gt;" style="rounded=1;whiteSpace=wrap;html=1;absoluteArcSize=1;arcSize=14;strokeWidth=2;labelBorderColor=none;" parent="WIyWlLk6GJQsqaUBKTNV-1" vertex="1">
          <mxGeometry x="1909.2600000000002" y="2000" width="190" height="100" as="geometry" />
        </mxCell>
        <mxCell id="wWXpOMj7G_PFiM4mv3d8-41" value="&lt;font style=&quot;font-size: 18px;&quot;&gt;2B&lt;/font&gt;" style="ellipse;whiteSpace=wrap;html=1;aspect=fixed;strokeWidth=2;" parent="WIyWlLk6GJQsqaUBKTNV-1" vertex="1">
          <mxGeometry x="2220" y="2025" width="50" height="50" as="geometry" />
        </mxCell>
        <mxCell id="wWXpOMj7G_PFiM4mv3d8-48" value="Is Prison" style="shape=table;startSize=30;container=1;collapsible=0;childLayout=tableLayout;fontSize=18;" parent="WIyWlLk6GJQsqaUBKTNV-1" vertex="1">
          <mxGeometry x="2510" y="40" width="770" height="520" as="geometry" />
        </mxCell>
        <mxCell id="wWXpOMj7G_PFiM4mv3d8-49" value="" style="shape=tableRow;horizontal=0;startSize=0;swimlaneHead=0;swimlaneBody=0;strokeColor=inherit;top=0;left=0;bottom=0;right=0;collapsible=0;dropTarget=0;fillColor=none;points=[[0,0.5],[1,0.5]];portConstraint=eastwest;" parent="wWXpOMj7G_PFiM4mv3d8-48" vertex="1">
          <mxGeometry y="30" width="770" height="490" as="geometry" />
        </mxCell>
        <mxCell id="wWXpOMj7G_PFiM4mv3d8-50" value="" style="shape=partialRectangle;html=1;whiteSpace=wrap;connectable=0;strokeColor=inherit;overflow=hidden;fillColor=none;top=0;left=0;bottom=0;right=0;pointerEvents=1;" parent="wWXpOMj7G_PFiM4mv3d8-49" vertex="1">
          <mxGeometry width="770" height="490" as="geometry">
            <mxRectangle width="770" height="490" as="alternateBounds" />
          </mxGeometry>
        </mxCell>
        <mxCell id="wWXpOMj7G_PFiM4mv3d8-54" value="Is Free Park" style="shape=table;startSize=30;container=1;collapsible=0;childLayout=tableLayout;fontSize=18;" parent="WIyWlLk6GJQsqaUBKTNV-1" vertex="1">
          <mxGeometry x="2510" y="600" width="770" height="520" as="geometry" />
        </mxCell>
        <mxCell id="wWXpOMj7G_PFiM4mv3d8-55" value="" style="shape=tableRow;horizontal=0;startSize=0;swimlaneHead=0;swimlaneBody=0;strokeColor=inherit;top=0;left=0;bottom=0;right=0;collapsible=0;dropTarget=0;fillColor=none;points=[[0,0.5],[1,0.5]];portConstraint=eastwest;" parent="wWXpOMj7G_PFiM4mv3d8-54" vertex="1">
          <mxGeometry y="30" width="770" height="490" as="geometry" />
        </mxCell>
        <mxCell id="wWXpOMj7G_PFiM4mv3d8-56" value="" style="shape=partialRectangle;html=1;whiteSpace=wrap;connectable=0;strokeColor=inherit;overflow=hidden;fillColor=none;top=0;left=0;bottom=0;right=0;pointerEvents=1;" parent="wWXpOMj7G_PFiM4mv3d8-55" vertex="1">
          <mxGeometry width="770" height="490" as="geometry">
            <mxRectangle width="770" height="490" as="alternateBounds" />
          </mxGeometry>
        </mxCell>
        <mxCell id="wWXpOMj7G_PFiM4mv3d8-57" value="Is Curse" style="shape=table;startSize=30;container=1;collapsible=0;childLayout=tableLayout;fontSize=18;" parent="WIyWlLk6GJQsqaUBKTNV-1" vertex="1">
          <mxGeometry x="2510" y="1200" width="770" height="520" as="geometry" />
        </mxCell>
        <mxCell id="wWXpOMj7G_PFiM4mv3d8-58" value="" style="shape=tableRow;horizontal=0;startSize=0;swimlaneHead=0;swimlaneBody=0;strokeColor=inherit;top=0;left=0;bottom=0;right=0;collapsible=0;dropTarget=0;fillColor=none;points=[[0,0.5],[1,0.5]];portConstraint=eastwest;" parent="wWXpOMj7G_PFiM4mv3d8-57" vertex="1">
          <mxGeometry y="30" width="770" height="490" as="geometry" />
        </mxCell>
        <mxCell id="wWXpOMj7G_PFiM4mv3d8-59" value="" style="shape=partialRectangle;html=1;whiteSpace=wrap;connectable=0;strokeColor=inherit;overflow=hidden;fillColor=none;top=0;left=0;bottom=0;right=0;pointerEvents=1;" parent="wWXpOMj7G_PFiM4mv3d8-58" vertex="1">
          <mxGeometry width="770" height="490" as="geometry">
            <mxRectangle width="770" height="490" as="alternateBounds" />
          </mxGeometry>
        </mxCell>
        <mxCell id="wWXpOMj7G_PFiM4mv3d8-61" value="Is Buff / Debuff" style="shape=table;startSize=30;container=1;collapsible=0;childLayout=tableLayout;fontSize=18;" parent="WIyWlLk6GJQsqaUBKTNV-1" vertex="1">
          <mxGeometry x="2510" y="1754" width="770" height="520" as="geometry" />
        </mxCell>
        <mxCell id="wWXpOMj7G_PFiM4mv3d8-62" value="" style="shape=tableRow;horizontal=0;startSize=0;swimlaneHead=0;swimlaneBody=0;strokeColor=inherit;top=0;left=0;bottom=0;right=0;collapsible=0;dropTarget=0;fillColor=none;points=[[0,0.5],[1,0.5]];portConstraint=eastwest;" parent="wWXpOMj7G_PFiM4mv3d8-61" vertex="1">
          <mxGeometry y="30" width="770" height="490" as="geometry" />
        </mxCell>
        <mxCell id="wWXpOMj7G_PFiM4mv3d8-63" value="" style="shape=partialRectangle;html=1;whiteSpace=wrap;connectable=0;strokeColor=inherit;overflow=hidden;fillColor=none;top=0;left=0;bottom=0;right=0;pointerEvents=1;" parent="wWXpOMj7G_PFiM4mv3d8-62" vertex="1">
          <mxGeometry width="770" height="490" as="geometry">
            <mxRectangle width="770" height="490" as="alternateBounds" />
          </mxGeometry>
        </mxCell>
        <mxCell id="wWXpOMj7G_PFiM4mv3d8-66" value="" style="edgeStyle=orthogonalEdgeStyle;rounded=0;orthogonalLoop=1;jettySize=auto;html=1;strokeWidth=3;" parent="WIyWlLk6GJQsqaUBKTNV-1" source="wWXpOMj7G_PFiM4mv3d8-64" target="wWXpOMj7G_PFiM4mv3d8-65" edge="1">
          <mxGeometry relative="1" as="geometry" />
        </mxCell>
        <mxCell id="wWXpOMj7G_PFiM4mv3d8-64" value="&lt;font style=&quot;font-size: 18px;&quot;&gt;1C&lt;/font&gt;" style="ellipse;whiteSpace=wrap;html=1;aspect=fixed;strokeWidth=2;" parent="WIyWlLk6GJQsqaUBKTNV-1" vertex="1">
          <mxGeometry x="2550" y="120" width="50" height="50" as="geometry" />
        </mxCell>
        <mxCell id="wWXpOMj7G_PFiM4mv3d8-71" value="" style="edgeStyle=orthogonalEdgeStyle;rounded=0;orthogonalLoop=1;jettySize=auto;html=1;strokeWidth=3;" parent="WIyWlLk6GJQsqaUBKTNV-1" source="wWXpOMj7G_PFiM4mv3d8-65" target="wWXpOMj7G_PFiM4mv3d8-70" edge="1">
          <mxGeometry relative="1" as="geometry" />
        </mxCell>
        <mxCell id="wWXpOMj7G_PFiM4mv3d8-72" value="&lt;font style=&quot;font-size: 18px;&quot;&gt;YES&lt;/font&gt;" style="edgeLabel;html=1;align=center;verticalAlign=middle;resizable=0;points=[];" parent="wWXpOMj7G_PFiM4mv3d8-71" vertex="1" connectable="0">
          <mxGeometry x="-0.0312" y="1" relative="1" as="geometry">
            <mxPoint x="-1" as="offset" />
          </mxGeometry>
        </mxCell>
        <mxCell id="wWXpOMj7G_PFiM4mv3d8-74" value="" style="edgeStyle=orthogonalEdgeStyle;rounded=0;orthogonalLoop=1;jettySize=auto;html=1;strokeWidth=3;entryX=0;entryY=0.5;entryDx=0;entryDy=0;exitX=0.5;exitY=1;exitDx=0;exitDy=0;exitPerimeter=0;" parent="WIyWlLk6GJQsqaUBKTNV-1" source="wWXpOMj7G_PFiM4mv3d8-65" target="wWXpOMj7G_PFiM4mv3d8-73" edge="1">
          <mxGeometry relative="1" as="geometry" />
        </mxCell>
        <mxCell id="wWXpOMj7G_PFiM4mv3d8-75" value="&lt;font style=&quot;font-size: 18px;&quot;&gt;NO&lt;/font&gt;" style="edgeLabel;html=1;align=center;verticalAlign=middle;resizable=0;points=[];" parent="wWXpOMj7G_PFiM4mv3d8-74" vertex="1" connectable="0">
          <mxGeometry x="-0.2773" y="-1" relative="1" as="geometry">
            <mxPoint x="1" y="-47" as="offset" />
          </mxGeometry>
        </mxCell>
        <mxCell id="wWXpOMj7G_PFiM4mv3d8-65" value="&lt;font size=&quot;3&quot;&gt;have anti prison card?&lt;/font&gt;" style="strokeWidth=2;html=1;shape=mxgraph.flowchart.decision;whiteSpace=wrap;spacing=22;" parent="WIyWlLk6GJQsqaUBKTNV-1" vertex="1">
          <mxGeometry x="2650" y="85" width="116.75" height="120" as="geometry" />
        </mxCell>
        <mxCell id="wWXpOMj7G_PFiM4mv3d8-76" style="edgeStyle=orthogonalEdgeStyle;rounded=0;orthogonalLoop=1;jettySize=auto;html=1;entryX=0.5;entryY=0;entryDx=0;entryDy=0;strokeWidth=3;exitX=0.5;exitY=1;exitDx=0;exitDy=0;exitPerimeter=0;" parent="WIyWlLk6GJQsqaUBKTNV-1" source="wWXpOMj7G_PFiM4mv3d8-70" target="wWXpOMj7G_PFiM4mv3d8-73" edge="1">
          <mxGeometry relative="1" as="geometry" />
        </mxCell>
        <mxCell id="wWXpOMj7G_PFiM4mv3d8-77" value="&lt;font style=&quot;font-size: 18px;&quot;&gt;NO&lt;/font&gt;" style="edgeLabel;html=1;align=center;verticalAlign=middle;resizable=0;points=[];" parent="wWXpOMj7G_PFiM4mv3d8-76" vertex="1" connectable="0">
          <mxGeometry x="-0.6846" relative="1" as="geometry">
            <mxPoint y="21" as="offset" />
          </mxGeometry>
        </mxCell>
        <mxCell id="wWXpOMj7G_PFiM4mv3d8-79" value="" style="edgeStyle=orthogonalEdgeStyle;rounded=0;orthogonalLoop=1;jettySize=auto;html=1;strokeWidth=3;" parent="WIyWlLk6GJQsqaUBKTNV-1" source="wWXpOMj7G_PFiM4mv3d8-70" target="wWXpOMj7G_PFiM4mv3d8-78" edge="1">
          <mxGeometry relative="1" as="geometry" />
        </mxCell>
        <mxCell id="wWXpOMj7G_PFiM4mv3d8-80" value="&lt;font style=&quot;font-size: 18px;&quot;&gt;YES&lt;/font&gt;" style="edgeLabel;html=1;align=center;verticalAlign=middle;resizable=0;points=[];" parent="wWXpOMj7G_PFiM4mv3d8-79" vertex="1" connectable="0">
          <mxGeometry x="-0.2083" y="2" relative="1" as="geometry">
            <mxPoint as="offset" />
          </mxGeometry>
        </mxCell>
        <mxCell id="wWXpOMj7G_PFiM4mv3d8-70" value="&lt;font size=&quot;3&quot;&gt;use the card?&lt;/font&gt;" style="strokeWidth=2;html=1;shape=mxgraph.flowchart.decision;whiteSpace=wrap;spacing=22;" parent="WIyWlLk6GJQsqaUBKTNV-1" vertex="1">
          <mxGeometry x="2860" y="85" width="116.75" height="120" as="geometry" />
        </mxCell>
        <mxCell id="wWXpOMj7G_PFiM4mv3d8-83" value="" style="edgeStyle=orthogonalEdgeStyle;rounded=0;orthogonalLoop=1;jettySize=auto;html=1;strokeWidth=3;" parent="WIyWlLk6GJQsqaUBKTNV-1" source="wWXpOMj7G_PFiM4mv3d8-73" target="wWXpOMj7G_PFiM4mv3d8-81" edge="1">
          <mxGeometry relative="1" as="geometry" />
        </mxCell>
        <mxCell id="wWXpOMj7G_PFiM4mv3d8-73" value="&lt;div&gt;&lt;font size=&quot;3&quot;&gt;&lt;b&gt;client&lt;/b&gt;&lt;/font&gt;&lt;/div&gt;&lt;font size=&quot;3&quot;&gt;go to prison directly&lt;/font&gt;" style="rounded=1;whiteSpace=wrap;html=1;absoluteArcSize=1;arcSize=14;strokeWidth=2;labelBorderColor=none;" parent="WIyWlLk6GJQsqaUBKTNV-1" vertex="1">
          <mxGeometry x="2823.38" y="292.5" width="190" height="100" as="geometry" />
        </mxCell>
        <mxCell id="wWXpOMj7G_PFiM4mv3d8-82" style="edgeStyle=orthogonalEdgeStyle;rounded=0;orthogonalLoop=1;jettySize=auto;html=1;strokeWidth=3;" parent="WIyWlLk6GJQsqaUBKTNV-1" source="wWXpOMj7G_PFiM4mv3d8-78" target="wWXpOMj7G_PFiM4mv3d8-81" edge="1">
          <mxGeometry relative="1" as="geometry" />
        </mxCell>
        <mxCell id="wWXpOMj7G_PFiM4mv3d8-78" value="&lt;div&gt;&lt;font size=&quot;3&quot;&gt;&lt;b&gt;client&lt;/b&gt;&lt;/font&gt;&lt;/div&gt;&lt;font size=&quot;3&quot;&gt;released from prison&lt;br&gt;&lt;/font&gt;" style="rounded=1;whiteSpace=wrap;html=1;absoluteArcSize=1;arcSize=14;strokeWidth=2;labelBorderColor=none;" parent="WIyWlLk6GJQsqaUBKTNV-1" vertex="1">
          <mxGeometry x="3060" y="95" width="190" height="100" as="geometry" />
        </mxCell>
        <mxCell id="wWXpOMj7G_PFiM4mv3d8-81" value="&lt;font style=&quot;font-size: 18px;&quot;&gt;2C&lt;/font&gt;" style="ellipse;whiteSpace=wrap;html=1;aspect=fixed;strokeWidth=2;" parent="WIyWlLk6GJQsqaUBKTNV-1" vertex="1">
          <mxGeometry x="3130" y="317.5" width="50" height="50" as="geometry" />
        </mxCell>
        <mxCell id="wWXpOMj7G_PFiM4mv3d8-86" value="" style="edgeStyle=orthogonalEdgeStyle;rounded=0;orthogonalLoop=1;jettySize=auto;html=1;strokeWidth=3;" parent="WIyWlLk6GJQsqaUBKTNV-1" source="wWXpOMj7G_PFiM4mv3d8-84" target="wWXpOMj7G_PFiM4mv3d8-85" edge="1">
          <mxGeometry relative="1" as="geometry" />
        </mxCell>
        <mxCell id="wWXpOMj7G_PFiM4mv3d8-84" value="&lt;font style=&quot;font-size: 18px;&quot;&gt;1D&lt;/font&gt;" style="ellipse;whiteSpace=wrap;html=1;aspect=fixed;strokeWidth=2;" parent="WIyWlLk6GJQsqaUBKTNV-1" vertex="1">
          <mxGeometry x="2560" y="680" width="50" height="50" as="geometry" />
        </mxCell>
        <mxCell id="wWXpOMj7G_PFiM4mv3d8-90" style="edgeStyle=orthogonalEdgeStyle;rounded=0;orthogonalLoop=1;jettySize=auto;html=1;entryX=0;entryY=0.5;entryDx=0;entryDy=0;strokeWidth=3;exitX=0.5;exitY=1;exitDx=0;exitDy=0;exitPerimeter=0;" parent="WIyWlLk6GJQsqaUBKTNV-1" source="wWXpOMj7G_PFiM4mv3d8-85" target="wWXpOMj7G_PFiM4mv3d8-87" edge="1">
          <mxGeometry relative="1" as="geometry" />
        </mxCell>
        <mxCell id="wWXpOMj7G_PFiM4mv3d8-91" value="&lt;font style=&quot;font-size: 18px;&quot;&gt;NO&lt;/font&gt;" style="edgeLabel;html=1;align=center;verticalAlign=middle;resizable=0;points=[];" parent="wWXpOMj7G_PFiM4mv3d8-90" vertex="1" connectable="0">
          <mxGeometry x="-0.6867" relative="1" as="geometry">
            <mxPoint y="1" as="offset" />
          </mxGeometry>
        </mxCell>
        <mxCell id="wWXpOMj7G_PFiM4mv3d8-93" value="" style="edgeStyle=orthogonalEdgeStyle;rounded=0;orthogonalLoop=1;jettySize=auto;html=1;strokeWidth=3;" parent="WIyWlLk6GJQsqaUBKTNV-1" source="wWXpOMj7G_PFiM4mv3d8-85" target="wWXpOMj7G_PFiM4mv3d8-92" edge="1">
          <mxGeometry relative="1" as="geometry" />
        </mxCell>
        <mxCell id="wWXpOMj7G_PFiM4mv3d8-94" value="&lt;font style=&quot;font-size: 18px;&quot;&gt;YES&lt;/font&gt;" style="edgeLabel;html=1;align=center;verticalAlign=middle;resizable=0;points=[];" parent="wWXpOMj7G_PFiM4mv3d8-93" vertex="1" connectable="0">
          <mxGeometry x="-0.1418" y="-1" relative="1" as="geometry">
            <mxPoint as="offset" />
          </mxGeometry>
        </mxCell>
        <mxCell id="wWXpOMj7G_PFiM4mv3d8-85" value="&lt;font size=&quot;3&quot;&gt;have nerf  card?&lt;/font&gt;" style="strokeWidth=2;html=1;shape=mxgraph.flowchart.decision;whiteSpace=wrap;spacing=22;" parent="WIyWlLk6GJQsqaUBKTNV-1" vertex="1">
          <mxGeometry x="2660" y="645" width="116.75" height="120" as="geometry" />
        </mxCell>
        <mxCell id="wWXpOMj7G_PFiM4mv3d8-97" value="" style="edgeStyle=orthogonalEdgeStyle;rounded=0;orthogonalLoop=1;jettySize=auto;html=1;strokeWidth=3;" parent="WIyWlLk6GJQsqaUBKTNV-1" source="wWXpOMj7G_PFiM4mv3d8-87" target="wWXpOMj7G_PFiM4mv3d8-96" edge="1">
          <mxGeometry relative="1" as="geometry" />
        </mxCell>
        <mxCell id="wWXpOMj7G_PFiM4mv3d8-87" value="&lt;div&gt;&lt;font size=&quot;3&quot;&gt;&lt;b&gt;client&lt;/b&gt;&lt;/font&gt;&lt;/div&gt;&lt;font size=&quot;3&quot;&gt;select number to go to, move to destination&lt;br&gt;&lt;/font&gt;" style="rounded=1;whiteSpace=wrap;html=1;absoluteArcSize=1;arcSize=14;strokeWidth=2;labelBorderColor=none;" parent="WIyWlLk6GJQsqaUBKTNV-1" vertex="1">
          <mxGeometry x="2870" y="845" width="190" height="100" as="geometry" />
        </mxCell>
        <mxCell id="wWXpOMj7G_PFiM4mv3d8-95" style="edgeStyle=orthogonalEdgeStyle;rounded=0;orthogonalLoop=1;jettySize=auto;html=1;entryX=0.5;entryY=0;entryDx=0;entryDy=0;strokeWidth=3;" parent="WIyWlLk6GJQsqaUBKTNV-1" source="wWXpOMj7G_PFiM4mv3d8-92" target="wWXpOMj7G_PFiM4mv3d8-87" edge="1">
          <mxGeometry relative="1" as="geometry" />
        </mxCell>
        <mxCell id="wWXpOMj7G_PFiM4mv3d8-92" value="&lt;div&gt;&lt;font size=&quot;3&quot;&gt;&lt;b&gt;client&lt;/b&gt;&lt;/font&gt;&lt;/div&gt;&lt;div&gt;&lt;font size=&quot;3&quot;&gt;reduce number of&amp;nbsp;&lt;/font&gt;&lt;/div&gt;&lt;div&gt;&lt;font size=&quot;3&quot;&gt;choices by 50%&lt;/font&gt;&lt;/div&gt;" style="rounded=1;whiteSpace=wrap;html=1;absoluteArcSize=1;arcSize=14;strokeWidth=2;labelBorderColor=none;" parent="WIyWlLk6GJQsqaUBKTNV-1" vertex="1">
          <mxGeometry x="2870" y="655" width="190" height="100" as="geometry" />
        </mxCell>
        <mxCell id="wWXpOMj7G_PFiM4mv3d8-96" value="&lt;font style=&quot;font-size: 18px;&quot;&gt;2D&lt;/font&gt;" style="ellipse;whiteSpace=wrap;html=1;aspect=fixed;strokeWidth=2;" parent="WIyWlLk6GJQsqaUBKTNV-1" vertex="1">
          <mxGeometry x="2940" y="1000" width="50" height="50" as="geometry" />
        </mxCell>
        <mxCell id="eBRAsDkczaqtYRSzF1OB-16" value="" style="edgeStyle=orthogonalEdgeStyle;rounded=0;orthogonalLoop=1;jettySize=auto;html=1;strokeWidth=3;" edge="1" parent="WIyWlLk6GJQsqaUBKTNV-1" source="wWXpOMj7G_PFiM4mv3d8-101" target="eBRAsDkczaqtYRSzF1OB-11">
          <mxGeometry relative="1" as="geometry" />
        </mxCell>
        <mxCell id="wWXpOMj7G_PFiM4mv3d8-101" value="&lt;font style=&quot;font-size: 18px;&quot;&gt;1E&lt;/font&gt;" style="ellipse;whiteSpace=wrap;html=1;aspect=fixed;strokeWidth=2;" parent="WIyWlLk6GJQsqaUBKTNV-1" vertex="1">
          <mxGeometry x="2675" y="1300" width="50" height="50" as="geometry" />
        </mxCell>
        <mxCell id="eBRAsDkczaqtYRSzF1OB-18" style="edgeStyle=orthogonalEdgeStyle;rounded=0;orthogonalLoop=1;jettySize=auto;html=1;entryX=0;entryY=0.5;entryDx=0;entryDy=0;strokeWidth=3;exitX=0.5;exitY=1;exitDx=0;exitDy=0;" edge="1" parent="WIyWlLk6GJQsqaUBKTNV-1" source="wWXpOMj7G_PFiM4mv3d8-102" target="wWXpOMj7G_PFiM4mv3d8-104">
          <mxGeometry relative="1" as="geometry" />
        </mxCell>
        <mxCell id="wWXpOMj7G_PFiM4mv3d8-102" value="&lt;div&gt;&lt;font size=&quot;3&quot;&gt;&lt;b&gt;client&lt;/b&gt;&lt;/font&gt;&lt;/div&gt;&lt;div&gt;&lt;font size=&quot;3&quot;&gt;reduce player money&lt;br&gt;&lt;/font&gt;&lt;/div&gt;" style="rounded=1;whiteSpace=wrap;html=1;absoluteArcSize=1;arcSize=14;strokeWidth=2;labelBorderColor=none;" parent="WIyWlLk6GJQsqaUBKTNV-1" vertex="1">
          <mxGeometry x="2650" y="1455" width="190" height="100" as="geometry" />
        </mxCell>
        <mxCell id="wWXpOMj7G_PFiM4mv3d8-104" value="&lt;font style=&quot;font-size: 18px;&quot;&gt;2E&lt;/font&gt;" style="ellipse;whiteSpace=wrap;html=1;aspect=fixed;strokeWidth=2;" parent="WIyWlLk6GJQsqaUBKTNV-1" vertex="1">
          <mxGeometry x="2870" y="1605" width="50" height="50" as="geometry" />
        </mxCell>
        <mxCell id="wWXpOMj7G_PFiM4mv3d8-126" style="edgeStyle=orthogonalEdgeStyle;rounded=0;orthogonalLoop=1;jettySize=auto;html=1;strokeWidth=3;" parent="WIyWlLk6GJQsqaUBKTNV-1" source="wWXpOMj7G_PFiM4mv3d8-106" target="wWXpOMj7G_PFiM4mv3d8-113" edge="1">
          <mxGeometry relative="1" as="geometry" />
        </mxCell>
        <mxCell id="wWXpOMj7G_PFiM4mv3d8-106" value="&lt;font style=&quot;font-size: 18px;&quot;&gt;1F&lt;/font&gt;" style="ellipse;whiteSpace=wrap;html=1;aspect=fixed;strokeWidth=2;" parent="WIyWlLk6GJQsqaUBKTNV-1" vertex="1">
          <mxGeometry x="2570.81" y="1829" width="50" height="50" as="geometry" />
        </mxCell>
        <mxCell id="eBRAsDkczaqtYRSzF1OB-22" value="" style="edgeStyle=orthogonalEdgeStyle;rounded=0;orthogonalLoop=1;jettySize=auto;html=1;strokeWidth=3;" edge="1" parent="WIyWlLk6GJQsqaUBKTNV-1" source="wWXpOMj7G_PFiM4mv3d8-113" target="wWXpOMj7G_PFiM4mv3d8-119">
          <mxGeometry relative="1" as="geometry" />
        </mxCell>
        <mxCell id="eBRAsDkczaqtYRSzF1OB-24" value="&lt;font style=&quot;font-size: 18px;&quot;&gt;NO&lt;/font&gt;" style="edgeLabel;html=1;align=center;verticalAlign=middle;resizable=0;points=[];" vertex="1" connectable="0" parent="eBRAsDkczaqtYRSzF1OB-22">
          <mxGeometry x="-0.0168" y="2" relative="1" as="geometry">
            <mxPoint as="offset" />
          </mxGeometry>
        </mxCell>
        <mxCell id="eBRAsDkczaqtYRSzF1OB-23" value="" style="edgeStyle=orthogonalEdgeStyle;rounded=0;orthogonalLoop=1;jettySize=auto;html=1;strokeWidth=3;" edge="1" parent="WIyWlLk6GJQsqaUBKTNV-1" source="wWXpOMj7G_PFiM4mv3d8-113" target="wWXpOMj7G_PFiM4mv3d8-122">
          <mxGeometry relative="1" as="geometry" />
        </mxCell>
        <mxCell id="eBRAsDkczaqtYRSzF1OB-25" value="&lt;font style=&quot;font-size: 18px;&quot;&gt;YES&lt;/font&gt;" style="edgeLabel;html=1;align=center;verticalAlign=middle;resizable=0;points=[];" vertex="1" connectable="0" parent="eBRAsDkczaqtYRSzF1OB-23">
          <mxGeometry x="-0.2521" y="-1" relative="1" as="geometry">
            <mxPoint as="offset" />
          </mxGeometry>
        </mxCell>
        <mxCell id="wWXpOMj7G_PFiM4mv3d8-113" value="&lt;font size=&quot;3&quot;&gt;is buff/debuff has direct effect?&lt;br&gt;&lt;/font&gt;" style="strokeWidth=2;html=1;shape=mxgraph.flowchart.decision;whiteSpace=wrap;spacing=22;" parent="WIyWlLk6GJQsqaUBKTNV-1" vertex="1">
          <mxGeometry x="2680" y="1794" width="160" height="156" as="geometry" />
        </mxCell>
        <mxCell id="wWXpOMj7G_PFiM4mv3d8-116" value="&lt;font style=&quot;font-size: 18px;&quot;&gt;2F&lt;/font&gt;" style="ellipse;whiteSpace=wrap;html=1;aspect=fixed;strokeWidth=2;" parent="WIyWlLk6GJQsqaUBKTNV-1" vertex="1">
          <mxGeometry x="3000" y="2045" width="50" height="50" as="geometry" />
        </mxCell>
        <mxCell id="eBRAsDkczaqtYRSzF1OB-27" style="edgeStyle=orthogonalEdgeStyle;rounded=0;orthogonalLoop=1;jettySize=auto;html=1;entryX=0.5;entryY=0;entryDx=0;entryDy=0;strokeWidth=3;" edge="1" parent="WIyWlLk6GJQsqaUBKTNV-1" source="wWXpOMj7G_PFiM4mv3d8-119" target="wWXpOMj7G_PFiM4mv3d8-116">
          <mxGeometry relative="1" as="geometry" />
        </mxCell>
        <mxCell id="wWXpOMj7G_PFiM4mv3d8-119" value="&lt;div&gt;&lt;font size=&quot;3&quot;&gt;&lt;b&gt;server&lt;/b&gt;&lt;/font&gt;&lt;/div&gt;&lt;font size=&quot;3&quot;&gt;save to database&lt;br&gt;&lt;/font&gt;" style="rounded=1;whiteSpace=wrap;html=1;absoluteArcSize=1;arcSize=14;strokeWidth=2;labelBorderColor=none;" parent="WIyWlLk6GJQsqaUBKTNV-1" vertex="1">
          <mxGeometry x="2930" y="1822" width="190" height="100" as="geometry" />
        </mxCell>
        <mxCell id="eBRAsDkczaqtYRSzF1OB-26" style="edgeStyle=orthogonalEdgeStyle;rounded=0;orthogonalLoop=1;jettySize=auto;html=1;strokeWidth=3;" edge="1" parent="WIyWlLk6GJQsqaUBKTNV-1" source="wWXpOMj7G_PFiM4mv3d8-122" target="wWXpOMj7G_PFiM4mv3d8-116">
          <mxGeometry relative="1" as="geometry" />
        </mxCell>
        <mxCell id="wWXpOMj7G_PFiM4mv3d8-122" value="&lt;div&gt;&lt;font size=&quot;3&quot;&gt;&lt;b&gt;client&lt;/b&gt;&lt;/font&gt;&lt;/div&gt;&lt;font size=&quot;3&quot;&gt;run buff / debuff&lt;br&gt;&lt;/font&gt;" style="rounded=1;whiteSpace=wrap;html=1;absoluteArcSize=1;arcSize=14;strokeWidth=2;labelBorderColor=none;" parent="WIyWlLk6GJQsqaUBKTNV-1" vertex="1">
          <mxGeometry x="2665" y="2020" width="190" height="100" as="geometry" />
        </mxCell>
        <mxCell id="abmZbeBCME4UZLQrCvki-0" value="Chatting" style="shape=table;startSize=30;container=1;collapsible=0;childLayout=tableLayout;fontSize=18;" parent="WIyWlLk6GJQsqaUBKTNV-1" vertex="1">
          <mxGeometry x="3337" y="40" width="770" height="1100" as="geometry" />
        </mxCell>
        <mxCell id="abmZbeBCME4UZLQrCvki-1" value="" style="shape=tableRow;horizontal=0;startSize=0;swimlaneHead=0;swimlaneBody=0;strokeColor=inherit;top=0;left=0;bottom=0;right=0;collapsible=0;dropTarget=0;fillColor=none;points=[[0,0.5],[1,0.5]];portConstraint=eastwest;" parent="abmZbeBCME4UZLQrCvki-0" vertex="1">
          <mxGeometry y="30" width="770" height="1070" as="geometry" />
        </mxCell>
        <mxCell id="abmZbeBCME4UZLQrCvki-2" value="" style="shape=partialRectangle;html=1;whiteSpace=wrap;connectable=0;strokeColor=inherit;overflow=hidden;fillColor=none;top=0;left=0;bottom=0;right=0;pointerEvents=1;" parent="abmZbeBCME4UZLQrCvki-1" vertex="1">
          <mxGeometry width="770" height="1070" as="geometry">
            <mxRectangle width="770" height="1070" as="alternateBounds" />
          </mxGeometry>
        </mxCell>
        <mxCell id="abmZbeBCME4UZLQrCvki-7" value="" style="edgeStyle=orthogonalEdgeStyle;rounded=0;orthogonalLoop=1;jettySize=auto;html=1;strokeWidth=3;" parent="WIyWlLk6GJQsqaUBKTNV-1" source="abmZbeBCME4UZLQrCvki-3" target="abmZbeBCME4UZLQrCvki-6" edge="1">
          <mxGeometry relative="1" as="geometry" />
        </mxCell>
        <mxCell id="abmZbeBCME4UZLQrCvki-3" value="&lt;font size=&quot;3&quot;&gt;&lt;b&gt;client&lt;/b&gt;&lt;br&gt;subscribe to pubnub channel (based on page)&lt;br&gt;&lt;/font&gt;" style="rounded=1;whiteSpace=wrap;html=1;absoluteArcSize=1;arcSize=14;strokeWidth=2;labelBorderColor=none;" parent="WIyWlLk6GJQsqaUBKTNV-1" vertex="1">
          <mxGeometry x="3370" y="180" width="190" height="100" as="geometry" />
        </mxCell>
        <mxCell id="abmZbeBCME4UZLQrCvki-5" value="" style="edgeStyle=orthogonalEdgeStyle;rounded=0;orthogonalLoop=1;jettySize=auto;html=1;strokeWidth=3;" parent="WIyWlLk6GJQsqaUBKTNV-1" source="abmZbeBCME4UZLQrCvki-4" target="abmZbeBCME4UZLQrCvki-3" edge="1">
          <mxGeometry relative="1" as="geometry" />
        </mxCell>
        <mxCell id="abmZbeBCME4UZLQrCvki-4" value="&lt;font size=&quot;3&quot;&gt;START&lt;/font&gt;" style="strokeWidth=2;html=1;shape=mxgraph.flowchart.terminator;whiteSpace=wrap;" parent="WIyWlLk6GJQsqaUBKTNV-1" vertex="1">
          <mxGeometry x="3672" y="90" width="100" height="60" as="geometry" />
        </mxCell>
        <mxCell id="abmZbeBCME4UZLQrCvki-9" value="" style="edgeStyle=orthogonalEdgeStyle;rounded=0;orthogonalLoop=1;jettySize=auto;html=1;strokeWidth=3;" parent="WIyWlLk6GJQsqaUBKTNV-1" source="abmZbeBCME4UZLQrCvki-6" target="abmZbeBCME4UZLQrCvki-8" edge="1">
          <mxGeometry relative="1" as="geometry" />
        </mxCell>
        <mxCell id="abmZbeBCME4UZLQrCvki-6" value="&lt;font size=&quot;3&quot;&gt;&lt;b&gt;client&lt;/b&gt;&lt;br&gt;display chat box&lt;br&gt;&lt;/font&gt;" style="strokeWidth=2;html=1;shape=mxgraph.flowchart.display;whiteSpace=wrap;labelBorderColor=none;spacing=22;" parent="WIyWlLk6GJQsqaUBKTNV-1" vertex="1">
          <mxGeometry x="3637" y="185" width="170" height="90" as="geometry" />
        </mxCell>
        <mxCell id="abmZbeBCME4UZLQrCvki-13" value="" style="edgeStyle=orthogonalEdgeStyle;rounded=0;orthogonalLoop=1;jettySize=auto;html=1;strokeWidth=3;" parent="WIyWlLk6GJQsqaUBKTNV-1" source="abmZbeBCME4UZLQrCvki-8" target="abmZbeBCME4UZLQrCvki-11" edge="1">
          <mxGeometry relative="1" as="geometry" />
        </mxCell>
        <mxCell id="abmZbeBCME4UZLQrCvki-8" value="&lt;div style=&quot;padding-top: 0px; padding-left: 0px; padding-right: 0px;&quot; align=&quot;center&quot;&gt;&lt;font style=&quot;font-size: 16px;&quot;&gt;send chat message&lt;br&gt;&lt;/font&gt;&lt;/div&gt;" style="shape=parallelogram;strokeWidth=2;perimeter=parallelogramPerimeter;rounded=1;arcSize=12;size=0.23;fixedWidth=0;autosize=0;expand=1;whiteSpace=wrap;html=1;align=center;labelBorderColor=none;textShadow=0;labelBackgroundColor=none;spacingLeft=0;spacingRight=0;spacing=32;" parent="WIyWlLk6GJQsqaUBKTNV-1" vertex="1">
          <mxGeometry x="3900" y="185" width="180" height="90" as="geometry" />
        </mxCell>
        <mxCell id="abmZbeBCME4UZLQrCvki-16" value="" style="edgeStyle=orthogonalEdgeStyle;rounded=0;orthogonalLoop=1;jettySize=auto;html=1;strokeWidth=3;" parent="WIyWlLk6GJQsqaUBKTNV-1" source="abmZbeBCME4UZLQrCvki-11" target="abmZbeBCME4UZLQrCvki-15" edge="1">
          <mxGeometry relative="1" as="geometry" />
        </mxCell>
        <mxCell id="abmZbeBCME4UZLQrCvki-11" value="&lt;font size=&quot;3&quot;&gt;&lt;b&gt;client&lt;/b&gt;&lt;br&gt;filter the inputs (length &amp;amp; regex)&lt;/font&gt;" style="rounded=1;whiteSpace=wrap;html=1;absoluteArcSize=1;arcSize=14;strokeWidth=2;labelBorderColor=none;" parent="WIyWlLk6GJQsqaUBKTNV-1" vertex="1">
          <mxGeometry x="3895" y="345" width="190" height="100" as="geometry" />
        </mxCell>
        <mxCell id="abmZbeBCME4UZLQrCvki-19" value="" style="edgeStyle=orthogonalEdgeStyle;rounded=0;orthogonalLoop=1;jettySize=auto;html=1;strokeWidth=3;" parent="WIyWlLk6GJQsqaUBKTNV-1" source="abmZbeBCME4UZLQrCvki-12" target="abmZbeBCME4UZLQrCvki-18" edge="1">
          <mxGeometry relative="1" as="geometry" />
        </mxCell>
        <mxCell id="abmZbeBCME4UZLQrCvki-12" value="&lt;font size=&quot;3&quot;&gt;send payload to server&lt;br&gt;(token &amp;amp; msg payload)&lt;/font&gt;" style="rounded=1;whiteSpace=wrap;html=1;absoluteArcSize=1;arcSize=14;strokeWidth=2;labelBorderColor=none;" parent="WIyWlLk6GJQsqaUBKTNV-1" vertex="1">
          <mxGeometry x="3370" y="344.5" width="190" height="100" as="geometry" />
        </mxCell>
        <mxCell id="abmZbeBCME4UZLQrCvki-17" value="" style="edgeStyle=orthogonalEdgeStyle;rounded=0;orthogonalLoop=1;jettySize=auto;html=1;strokeWidth=3;" parent="WIyWlLk6GJQsqaUBKTNV-1" source="abmZbeBCME4UZLQrCvki-15" target="abmZbeBCME4UZLQrCvki-12" edge="1">
          <mxGeometry relative="1" as="geometry" />
        </mxCell>
        <mxCell id="abmZbeBCME4UZLQrCvki-15" value="&lt;font size=&quot;3&quot;&gt;&lt;b&gt;client&lt;/b&gt;&lt;br&gt;add the message to chat box&lt;br&gt;&lt;/font&gt;" style="strokeWidth=2;html=1;shape=mxgraph.flowchart.display;whiteSpace=wrap;labelBorderColor=none;spacing=22;" parent="WIyWlLk6GJQsqaUBKTNV-1" vertex="1">
          <mxGeometry x="3637" y="349.5" width="170" height="90" as="geometry" />
        </mxCell>
        <mxCell id="abmZbeBCME4UZLQrCvki-21" value="" style="edgeStyle=orthogonalEdgeStyle;rounded=0;orthogonalLoop=1;jettySize=auto;html=1;strokeWidth=3;" parent="WIyWlLk6GJQsqaUBKTNV-1" source="abmZbeBCME4UZLQrCvki-18" target="abmZbeBCME4UZLQrCvki-20" edge="1">
          <mxGeometry relative="1" as="geometry" />
        </mxCell>
        <mxCell id="abmZbeBCME4UZLQrCvki-18" value="&lt;font size=&quot;3&quot;&gt;&lt;b&gt;server&lt;/b&gt;&lt;br&gt;verify token&lt;br&gt;&lt;/font&gt;" style="rounded=1;whiteSpace=wrap;html=1;absoluteArcSize=1;arcSize=14;strokeWidth=2;labelBorderColor=none;" parent="WIyWlLk6GJQsqaUBKTNV-1" vertex="1">
          <mxGeometry x="3370" y="510" width="190" height="100" as="geometry" />
        </mxCell>
        <mxCell id="abmZbeBCME4UZLQrCvki-24" value="" style="edgeStyle=orthogonalEdgeStyle;rounded=0;orthogonalLoop=1;jettySize=auto;html=1;strokeWidth=3;" parent="WIyWlLk6GJQsqaUBKTNV-1" source="abmZbeBCME4UZLQrCvki-20" target="abmZbeBCME4UZLQrCvki-22" edge="1">
          <mxGeometry relative="1" as="geometry" />
        </mxCell>
        <mxCell id="abmZbeBCME4UZLQrCvki-27" value="&lt;font style=&quot;font-size: 18px;&quot;&gt;NO&lt;/font&gt;" style="edgeLabel;html=1;align=center;verticalAlign=middle;resizable=0;points=[];" parent="abmZbeBCME4UZLQrCvki-24" vertex="1" connectable="0">
          <mxGeometry x="-0.1835" relative="1" as="geometry">
            <mxPoint x="1" as="offset" />
          </mxGeometry>
        </mxCell>
        <mxCell id="abmZbeBCME4UZLQrCvki-29" value="" style="edgeStyle=orthogonalEdgeStyle;rounded=0;orthogonalLoop=1;jettySize=auto;html=1;strokeWidth=3;" parent="WIyWlLk6GJQsqaUBKTNV-1" source="abmZbeBCME4UZLQrCvki-20" target="abmZbeBCME4UZLQrCvki-28" edge="1">
          <mxGeometry relative="1" as="geometry" />
        </mxCell>
        <mxCell id="abmZbeBCME4UZLQrCvki-30" value="&lt;font style=&quot;font-size: 18px;&quot;&gt;YES&lt;/font&gt;" style="edgeLabel;html=1;align=center;verticalAlign=middle;resizable=0;points=[];" parent="abmZbeBCME4UZLQrCvki-29" vertex="1" connectable="0">
          <mxGeometry x="-0.2353" y="-1" relative="1" as="geometry">
            <mxPoint as="offset" />
          </mxGeometry>
        </mxCell>
        <mxCell id="abmZbeBCME4UZLQrCvki-20" value="&lt;font size=&quot;3&quot;&gt;verified?&lt;/font&gt;" style="strokeWidth=2;html=1;shape=mxgraph.flowchart.decision;whiteSpace=wrap;spacing=22;" parent="WIyWlLk6GJQsqaUBKTNV-1" vertex="1">
          <mxGeometry x="3663" y="500" width="116.75" height="120" as="geometry" />
        </mxCell>
        <mxCell id="abmZbeBCME4UZLQrCvki-25" style="edgeStyle=orthogonalEdgeStyle;rounded=0;orthogonalLoop=1;jettySize=auto;html=1;entryX=0;entryY=0.5;entryDx=0;entryDy=0;strokeWidth=3;" parent="WIyWlLk6GJQsqaUBKTNV-1" source="abmZbeBCME4UZLQrCvki-22" target="abmZbeBCME4UZLQrCvki-8" edge="1">
          <mxGeometry relative="1" as="geometry">
            <Array as="points">
              <mxPoint x="3990" y="480" />
              <mxPoint x="3860" y="480" />
              <mxPoint x="3860" y="230" />
            </Array>
          </mxGeometry>
        </mxCell>
        <mxCell id="abmZbeBCME4UZLQrCvki-22" value="&lt;font size=&quot;3&quot;&gt;&lt;b&gt;client&lt;/b&gt;&lt;br&gt;error message&lt;br&gt;&lt;/font&gt;" style="strokeWidth=2;html=1;shape=mxgraph.flowchart.display;whiteSpace=wrap;labelBorderColor=none;spacing=22;" parent="WIyWlLk6GJQsqaUBKTNV-1" vertex="1">
          <mxGeometry x="3905" y="515" width="170" height="90" as="geometry" />
        </mxCell>
        <mxCell id="abmZbeBCME4UZLQrCvki-32" value="" style="edgeStyle=orthogonalEdgeStyle;rounded=0;orthogonalLoop=1;jettySize=auto;html=1;strokeWidth=3;" parent="WIyWlLk6GJQsqaUBKTNV-1" source="abmZbeBCME4UZLQrCvki-28" target="abmZbeBCME4UZLQrCvki-31" edge="1">
          <mxGeometry relative="1" as="geometry" />
        </mxCell>
        <mxCell id="abmZbeBCME4UZLQrCvki-28" value="&lt;font size=&quot;3&quot;&gt;&lt;b&gt;server&lt;/b&gt;&lt;br&gt;filter the payload (num of inputs, typeof, length, regex)&lt;br&gt;&lt;/font&gt;" style="rounded=1;whiteSpace=wrap;html=1;absoluteArcSize=1;arcSize=14;strokeWidth=2;labelBorderColor=none;" parent="WIyWlLk6GJQsqaUBKTNV-1" vertex="1">
          <mxGeometry x="3626.38" y="690" width="190" height="100" as="geometry" />
        </mxCell>
        <mxCell id="abmZbeBCME4UZLQrCvki-33" value="" style="edgeStyle=orthogonalEdgeStyle;rounded=0;orthogonalLoop=1;jettySize=auto;html=1;strokeWidth=3;" parent="WIyWlLk6GJQsqaUBKTNV-1" source="abmZbeBCME4UZLQrCvki-31" target="abmZbeBCME4UZLQrCvki-22" edge="1">
          <mxGeometry relative="1" as="geometry" />
        </mxCell>
        <mxCell id="abmZbeBCME4UZLQrCvki-34" value="&lt;font style=&quot;font-size: 18px;&quot;&gt;NO&lt;/font&gt;" style="edgeLabel;html=1;align=center;verticalAlign=middle;resizable=0;points=[];" parent="abmZbeBCME4UZLQrCvki-33" vertex="1" connectable="0">
          <mxGeometry x="-0.1451" relative="1" as="geometry">
            <mxPoint as="offset" />
          </mxGeometry>
        </mxCell>
        <mxCell id="abmZbeBCME4UZLQrCvki-37" value="" style="edgeStyle=orthogonalEdgeStyle;rounded=0;orthogonalLoop=1;jettySize=auto;html=1;strokeWidth=3;" parent="WIyWlLk6GJQsqaUBKTNV-1" source="abmZbeBCME4UZLQrCvki-31" target="abmZbeBCME4UZLQrCvki-36" edge="1">
          <mxGeometry relative="1" as="geometry" />
        </mxCell>
        <mxCell id="abmZbeBCME4UZLQrCvki-38" value="&lt;font style=&quot;font-size: 18px;&quot;&gt;YES&lt;/font&gt;" style="edgeLabel;html=1;align=center;verticalAlign=middle;resizable=0;points=[];" parent="abmZbeBCME4UZLQrCvki-37" vertex="1" connectable="0">
          <mxGeometry x="-0.2255" y="1" relative="1" as="geometry">
            <mxPoint as="offset" />
          </mxGeometry>
        </mxCell>
        <mxCell id="abmZbeBCME4UZLQrCvki-31" value="&lt;font size=&quot;3&quot;&gt;filter success?&lt;/font&gt;" style="strokeWidth=2;html=1;shape=mxgraph.flowchart.decision;whiteSpace=wrap;spacing=22;" parent="WIyWlLk6GJQsqaUBKTNV-1" vertex="1">
          <mxGeometry x="3931.63" y="680" width="116.75" height="120" as="geometry" />
        </mxCell>
        <mxCell id="abmZbeBCME4UZLQrCvki-40" value="" style="edgeStyle=orthogonalEdgeStyle;rounded=0;orthogonalLoop=1;jettySize=auto;html=1;strokeWidth=3;" parent="WIyWlLk6GJQsqaUBKTNV-1" source="abmZbeBCME4UZLQrCvki-36" target="abmZbeBCME4UZLQrCvki-39" edge="1">
          <mxGeometry relative="1" as="geometry" />
        </mxCell>
        <mxCell id="abmZbeBCME4UZLQrCvki-36" value="&lt;font size=&quot;3&quot;&gt;&lt;b&gt;server&lt;/b&gt;&lt;br&gt;publish message with pubnub&lt;br&gt;&lt;/font&gt;" style="rounded=1;whiteSpace=wrap;html=1;absoluteArcSize=1;arcSize=14;strokeWidth=2;labelBorderColor=none;" parent="WIyWlLk6GJQsqaUBKTNV-1" vertex="1">
          <mxGeometry x="3895" y="860" width="190" height="100" as="geometry" />
        </mxCell>
        <mxCell id="abmZbeBCME4UZLQrCvki-42" value="" style="edgeStyle=orthogonalEdgeStyle;rounded=0;orthogonalLoop=1;jettySize=auto;html=1;strokeWidth=3;" parent="WIyWlLk6GJQsqaUBKTNV-1" source="abmZbeBCME4UZLQrCvki-39" target="abmZbeBCME4UZLQrCvki-41" edge="1">
          <mxGeometry relative="1" as="geometry" />
        </mxCell>
        <mxCell id="abmZbeBCME4UZLQrCvki-39" value="&lt;font size=&quot;3&quot;&gt;&lt;b&gt;client&lt;/b&gt;&lt;br&gt;get published message&lt;br&gt;&lt;/font&gt;" style="rounded=1;whiteSpace=wrap;html=1;absoluteArcSize=1;arcSize=14;strokeWidth=2;labelBorderColor=none;" parent="WIyWlLk6GJQsqaUBKTNV-1" vertex="1">
          <mxGeometry x="3626.38" y="860" width="190" height="100" as="geometry" />
        </mxCell>
        <mxCell id="abmZbeBCME4UZLQrCvki-44" value="" style="edgeStyle=orthogonalEdgeStyle;rounded=0;orthogonalLoop=1;jettySize=auto;html=1;strokeWidth=3;" parent="WIyWlLk6GJQsqaUBKTNV-1" source="abmZbeBCME4UZLQrCvki-41" target="abmZbeBCME4UZLQrCvki-43" edge="1">
          <mxGeometry relative="1" as="geometry" />
        </mxCell>
        <mxCell id="abmZbeBCME4UZLQrCvki-41" value="&lt;font size=&quot;3&quot;&gt;&lt;b&gt;client&lt;/b&gt;&lt;br&gt;add the message to receiver chat box&lt;br&gt;&lt;/font&gt;" style="strokeWidth=2;html=1;shape=mxgraph.flowchart.display;whiteSpace=wrap;labelBorderColor=none;spacing=22;" parent="WIyWlLk6GJQsqaUBKTNV-1" vertex="1">
          <mxGeometry x="3380" y="865" width="170" height="90" as="geometry" />
        </mxCell>
        <mxCell id="abmZbeBCME4UZLQrCvki-43" value="&lt;font size=&quot;3&quot;&gt;END&lt;/font&gt;" style="strokeWidth=2;html=1;shape=mxgraph.flowchart.terminator;whiteSpace=wrap;" parent="WIyWlLk6GJQsqaUBKTNV-1" vertex="1">
          <mxGeometry x="3415" y="1020" width="100" height="60" as="geometry" />
        </mxCell>
        <mxCell id="eBRAsDkczaqtYRSzF1OB-2" value="" style="edgeStyle=orthogonalEdgeStyle;rounded=0;orthogonalLoop=1;jettySize=auto;html=1;strokeWidth=3;" edge="1" parent="WIyWlLk6GJQsqaUBKTNV-1" source="eBRAsDkczaqtYRSzF1OB-0" target="wWXpOMj7G_PFiM4mv3d8-25">
          <mxGeometry relative="1" as="geometry" />
        </mxCell>
        <mxCell id="eBRAsDkczaqtYRSzF1OB-9" value="&lt;font style=&quot;font-size: 18px;&quot;&gt;YES&lt;/font&gt;" style="edgeLabel;html=1;align=center;verticalAlign=middle;resizable=0;points=[];" vertex="1" connectable="0" parent="eBRAsDkczaqtYRSzF1OB-2">
          <mxGeometry x="-0.0538" relative="1" as="geometry">
            <mxPoint x="-8" as="offset" />
          </mxGeometry>
        </mxCell>
        <mxCell id="eBRAsDkczaqtYRSzF1OB-10" style="edgeStyle=orthogonalEdgeStyle;rounded=0;orthogonalLoop=1;jettySize=auto;html=1;entryX=0;entryY=0.5;entryDx=0;entryDy=0;strokeWidth=3;exitX=0.5;exitY=1;exitDx=0;exitDy=0;exitPerimeter=0;" edge="1" parent="WIyWlLk6GJQsqaUBKTNV-1" source="eBRAsDkczaqtYRSzF1OB-0" target="wWXpOMj7G_PFiM4mv3d8-22">
          <mxGeometry relative="1" as="geometry" />
        </mxCell>
        <mxCell id="eBRAsDkczaqtYRSzF1OB-0" value="&lt;font size=&quot;3&quot;&gt;pay tax?&lt;/font&gt;" style="strokeWidth=2;html=1;shape=mxgraph.flowchart.decision;whiteSpace=wrap;spacing=22;" vertex="1" parent="WIyWlLk6GJQsqaUBKTNV-1">
          <mxGeometry x="1761.63" y="1430" width="116.75" height="120" as="geometry" />
        </mxCell>
        <mxCell id="eBRAsDkczaqtYRSzF1OB-15" value="" style="edgeStyle=orthogonalEdgeStyle;rounded=0;orthogonalLoop=1;jettySize=auto;html=1;strokeWidth=3;" edge="1" parent="WIyWlLk6GJQsqaUBKTNV-1" source="eBRAsDkczaqtYRSzF1OB-11" target="eBRAsDkczaqtYRSzF1OB-13">
          <mxGeometry relative="1" as="geometry" />
        </mxCell>
        <mxCell id="eBRAsDkczaqtYRSzF1OB-21" value="&lt;font style=&quot;font-size: 18px;&quot;&gt;YES&lt;/font&gt;" style="edgeLabel;html=1;align=center;verticalAlign=middle;resizable=0;points=[];" vertex="1" connectable="0" parent="eBRAsDkczaqtYRSzF1OB-15">
          <mxGeometry x="-0.0525" relative="1" as="geometry">
            <mxPoint as="offset" />
          </mxGeometry>
        </mxCell>
        <mxCell id="eBRAsDkczaqtYRSzF1OB-17" value="" style="edgeStyle=orthogonalEdgeStyle;rounded=0;orthogonalLoop=1;jettySize=auto;html=1;strokeWidth=3;" edge="1" parent="WIyWlLk6GJQsqaUBKTNV-1" source="eBRAsDkczaqtYRSzF1OB-11" target="wWXpOMj7G_PFiM4mv3d8-102">
          <mxGeometry relative="1" as="geometry" />
        </mxCell>
        <mxCell id="eBRAsDkczaqtYRSzF1OB-20" value="&lt;font style=&quot;font-size: 18px;&quot;&gt;NO&lt;/font&gt;" style="edgeLabel;html=1;align=center;verticalAlign=middle;resizable=0;points=[];" vertex="1" connectable="0" parent="eBRAsDkczaqtYRSzF1OB-17">
          <mxGeometry x="0.0059" y="-2" relative="1" as="geometry">
            <mxPoint as="offset" />
          </mxGeometry>
        </mxCell>
        <mxCell id="eBRAsDkczaqtYRSzF1OB-11" value="&lt;font size=&quot;3&quot;&gt;have reverse curse?&lt;/font&gt;" style="strokeWidth=2;html=1;shape=mxgraph.flowchart.decision;whiteSpace=wrap;spacing=22;" vertex="1" parent="WIyWlLk6GJQsqaUBKTNV-1">
          <mxGeometry x="2836" y="1265" width="116.75" height="120" as="geometry" />
        </mxCell>
        <mxCell id="eBRAsDkczaqtYRSzF1OB-19" style="edgeStyle=orthogonalEdgeStyle;rounded=0;orthogonalLoop=1;jettySize=auto;html=1;entryX=1;entryY=0.5;entryDx=0;entryDy=0;strokeWidth=3;exitX=0.5;exitY=1;exitDx=0;exitDy=0;" edge="1" parent="WIyWlLk6GJQsqaUBKTNV-1" source="eBRAsDkczaqtYRSzF1OB-13" target="wWXpOMj7G_PFiM4mv3d8-104">
          <mxGeometry relative="1" as="geometry" />
        </mxCell>
        <mxCell id="eBRAsDkczaqtYRSzF1OB-13" value="&lt;div&gt;&lt;font size=&quot;3&quot;&gt;&lt;b&gt;client&lt;/b&gt;&lt;/font&gt;&lt;/div&gt;&lt;div&gt;&lt;font size=&quot;3&quot;&gt;reduce other player money&lt;br&gt;&lt;/font&gt;&lt;/div&gt;" style="rounded=1;whiteSpace=wrap;html=1;absoluteArcSize=1;arcSize=14;strokeWidth=2;labelBorderColor=none;" vertex="1" parent="WIyWlLk6GJQsqaUBKTNV-1">
          <mxGeometry x="2940" y="1455" width="190" height="100" as="geometry" />
        </mxCell>
        <mxCell id="eBRAsDkczaqtYRSzF1OB-28" value="&lt;p style=&quot;line-height: 120%; padding-bottom: 0px; margin-top: 0px; margin-bottom: 20px;&quot;&gt;&lt;font size=&quot;3&quot;&gt;games&lt;br&gt;&lt;/font&gt;&lt;/p&gt;" style="strokeWidth=2;html=1;shape=mxgraph.flowchart.merge_or_storage;whiteSpace=wrap;labelBorderColor=none;spacing=22;verticalAlign=middle;horizontal=1;labelPosition=center;verticalLabelPosition=middle;align=center;" vertex="1" parent="WIyWlLk6GJQsqaUBKTNV-1">
          <mxGeometry x="3130" y="1940" width="130" height="80" as="geometry" />
        </mxCell>
        <mxCell id="eBRAsDkczaqtYRSzF1OB-29" style="edgeStyle=orthogonalEdgeStyle;rounded=0;orthogonalLoop=1;jettySize=auto;html=1;entryX=0.5;entryY=0;entryDx=0;entryDy=0;entryPerimeter=0;strokeWidth=3;" edge="1" parent="WIyWlLk6GJQsqaUBKTNV-1" source="wWXpOMj7G_PFiM4mv3d8-119" target="eBRAsDkczaqtYRSzF1OB-28">
          <mxGeometry relative="1" as="geometry" />
        </mxCell>
      </root>
    </mxGraphModel>
  </diagram>
</mxfile>
